M48
;Layer_Color=9474304
;FILE_FORMAT=4:4
METRIC,LZ
;TYPE=PLATED
T1F00S00C0.8000
T2F00S00C0.8128
T3F00S00C1.1000
T4F00S00C3.0000
T5F00S00C3.2000
;TYPE=NON_PLATED
T6F00S00C0.8000
T7F00S00C1.0000
%
T01
X0155321Y0106426
Y0108966
X0152146Y0116586
X0161925Y0117094
X0164465
X0152146Y0119126
T02
X0151765Y0125857
Y0128397
T03
X0026289Y0006477
X0030988
X008128Y0007112
X0085979
X0134493Y0006985
X0139192
X0131699Y0060579
X0129159
X0126619
X0124079
Y0063119
X0126619
X0129159
X0131699
X0078486Y0063246
Y0060706
X0075946
X0073406
X0070866
Y0063246
X0073406
X0075946
X0023495Y0062611
Y0060071
X0020955
X0018415
X0015875
Y0062611
X0018415
X0020955
X0029845Y008001
X0032385
X0034925
X0037465
X0040005
X0042545
X0045085
X0047625
X0050165
X0052705
X0056896
X0059436
X0061976
X0064516
X0067056
X0069596
X0072136
X0074676
X0079629
X0082169
X0084709
X0087249
X0089789
X0092329
X0094869
X0097409
X0105029
X0107569
Y008255
Y008509
Y008763
Y009017
Y009271
Y009525
Y009779
Y010033
Y010287
Y010541
Y010795
Y011049
Y011303
Y011557
Y011811
X0105029
Y011557
Y011303
Y011049
Y010795
Y010541
Y010287
Y010033
Y009779
Y009525
Y009271
Y009017
Y008763
Y008509
Y008255
X012065Y0086233
Y0088773
Y0091313
Y0093853
Y0096393
Y0098933
Y0101473
Y0104013
Y0106553
Y0109093
Y0111633
Y0114173
Y0116713
X014351
Y0114173
Y0111633
Y0109093
Y0106553
Y0104013
Y0101473
Y0098933
Y0096393
Y0093853
Y0091313
Y0088773
Y0086233
X015113Y0083693
Y0100711
X017145Y0111887
Y0114427
Y0116967
X0190627Y0100711
Y0083693
X014351Y0119253
Y0121793
X012065
Y0119253
X0107569Y012065
Y012319
X0105029
Y012065
X0102489Y012827
X0099949
X0097409
X0094869
X0092329
X0089789
X0087249
X0084709
X0079629
X0077089
X0074549
X0072009
X0069469
X0066929
X0064389
X0061849
X0056769
X0054229
X0051689
X0049149
X0046609
X0044069
X0041529
X0038989
T04
X0009271Y0014478
X0049149Y0014351
X0064262Y0015113
X010414Y0014986
X0117475
X0157353Y0014859
Y0054864
X0117348
X010414Y0054991
X0064135
X0049149Y0054356
X0009144
X0121666Y0082169
X0142494
X0142621Y0125857
X0121666
T05
X0026289Y008001
X0101346
X0155956Y0100203
X0185928Y0084201
X0107569Y012827
X0077089Y012319
X0025019Y012827
T06
X0157861Y01222756
Y01308481
T07
X0162941Y0125222
X0165481
M30
