G04*
G04 #@! TF.GenerationSoftware,Altium Limited,Altium Designer,21.8.1 (53)*
G04*
G04 Layer_Physical_Order=2*
G04 Layer_Color=16711680*
%FSLAX44Y44*%
%MOMM*%
G71*
G04*
G04 #@! TF.SameCoordinates,8ADACE41-6A2D-41FB-BF43-4A9E8EE8C82B*
G04*
G04*
G04 #@! TF.FilePolarity,Positive*
G04*
G01*
G75*
%ADD25C,0.5080*%
%ADD26C,0.3810*%
%ADD27R,1.7780X1.7780*%
%ADD28O,1.7780X1.9050*%
%ADD29R,1.3000X1.5000*%
%ADD30O,1.3000X1.5000*%
%ADD31R,1.5000X1.3000*%
%ADD32O,1.5000X1.3000*%
%ADD33C,1.6000*%
%ADD34C,1.5240*%
%ADD35C,1.4000*%
%ADD36R,2.5400X1.6510*%
%ADD37O,2.5400X1.6510*%
%ADD38C,0.6350*%
G36*
X2014220D02*
X0D01*
Y1400810D01*
X2014220D01*
Y0D01*
D02*
G37*
%LPC*%
G36*
X798012Y1295780D02*
X794568D01*
X791241Y1294889D01*
X788259Y1293167D01*
X785823Y1290731D01*
X784297Y1288088D01*
X783893Y1287975D01*
X783287D01*
X782883Y1288088D01*
X781357Y1290731D01*
X778921Y1293167D01*
X775939Y1294889D01*
X772612Y1295780D01*
X769168D01*
X765841Y1294889D01*
X762859Y1293167D01*
X760423Y1290731D01*
X758897Y1288088D01*
X758493Y1287975D01*
X757887D01*
X757483Y1288088D01*
X755957Y1290731D01*
X753521Y1293167D01*
X750539Y1294889D01*
X747212Y1295780D01*
X743768D01*
X740441Y1294889D01*
X737459Y1293167D01*
X735023Y1290731D01*
X733497Y1288088D01*
X733093Y1287975D01*
X732487D01*
X732083Y1288088D01*
X730557Y1290731D01*
X728121Y1293167D01*
X725139Y1294889D01*
X721812Y1295780D01*
X718368D01*
X715041Y1294889D01*
X712059Y1293167D01*
X709623Y1290731D01*
X708097Y1288088D01*
X707693Y1287975D01*
X707087D01*
X706683Y1288088D01*
X705157Y1290731D01*
X702721Y1293167D01*
X699739Y1294889D01*
X696412Y1295780D01*
X692968D01*
X689641Y1294889D01*
X686659Y1293167D01*
X684223Y1290731D01*
X682697Y1288088D01*
X682293Y1287975D01*
X681687D01*
X681283Y1288088D01*
X679757Y1290731D01*
X677321Y1293167D01*
X674339Y1294889D01*
X671012Y1295780D01*
X667568D01*
X664241Y1294889D01*
X661259Y1293167D01*
X658823Y1290731D01*
X657297Y1288088D01*
X656893Y1287975D01*
X656287D01*
X655883Y1288088D01*
X654357Y1290731D01*
X651921Y1293167D01*
X648939Y1294889D01*
X645612Y1295780D01*
X642168D01*
X638841Y1294889D01*
X635859Y1293167D01*
X633423Y1290731D01*
X631897Y1288088D01*
X631493Y1287975D01*
X630887D01*
X630483Y1288088D01*
X628957Y1290731D01*
X626521Y1293167D01*
X623539Y1294889D01*
X620212Y1295780D01*
X616768D01*
X613441Y1294889D01*
X610459Y1293167D01*
X608023Y1290731D01*
X606301Y1287749D01*
X605410Y1284422D01*
Y1280978D01*
X606301Y1277651D01*
X608023Y1274669D01*
X610459Y1272233D01*
X613441Y1270511D01*
X616768Y1269620D01*
X620212D01*
X623539Y1270511D01*
X626521Y1272233D01*
X628957Y1274669D01*
X630483Y1277312D01*
X630887Y1277425D01*
X631493D01*
X631897Y1277312D01*
X633423Y1274669D01*
X635859Y1272233D01*
X638841Y1270511D01*
X642168Y1269620D01*
X645612D01*
X648939Y1270511D01*
X651921Y1272233D01*
X654357Y1274669D01*
X655883Y1277312D01*
X656287Y1277425D01*
X656893D01*
X657297Y1277312D01*
X658823Y1274669D01*
X661259Y1272233D01*
X664241Y1270511D01*
X667568Y1269620D01*
X671012D01*
X674339Y1270511D01*
X677321Y1272233D01*
X679757Y1274669D01*
X681283Y1277312D01*
X681687Y1277425D01*
X682293D01*
X682697Y1277312D01*
X684223Y1274669D01*
X686659Y1272233D01*
X689641Y1270511D01*
X692968Y1269620D01*
X696412D01*
X699739Y1270511D01*
X702721Y1272233D01*
X705157Y1274669D01*
X706683Y1277312D01*
X707087Y1277425D01*
X707693D01*
X708097Y1277312D01*
X709623Y1274669D01*
X712059Y1272233D01*
X715041Y1270511D01*
X718368Y1269620D01*
X721812D01*
X725139Y1270511D01*
X728121Y1272233D01*
X730557Y1274669D01*
X732083Y1277312D01*
X732487Y1277425D01*
X733093D01*
X733497Y1277312D01*
X735023Y1274669D01*
X737459Y1272233D01*
X740441Y1270511D01*
X743768Y1269620D01*
X747212D01*
X750539Y1270511D01*
X753521Y1272233D01*
X755957Y1274669D01*
X757483Y1277312D01*
X757887Y1277425D01*
X758493D01*
X758897Y1277312D01*
X760423Y1274669D01*
X762859Y1272233D01*
X765841Y1270511D01*
X769168Y1269620D01*
X772612D01*
X775939Y1270511D01*
X778921Y1272233D01*
X781357Y1274669D01*
X782883Y1277312D01*
X783287Y1277425D01*
X783893D01*
X784297Y1277312D01*
X785823Y1274669D01*
X788259Y1272233D01*
X791241Y1270511D01*
X794568Y1269620D01*
X798012D01*
X801339Y1270511D01*
X804321Y1272233D01*
X806757Y1274669D01*
X808479Y1277651D01*
X809370Y1280978D01*
Y1284422D01*
X808479Y1287749D01*
X806757Y1290731D01*
X804321Y1293167D01*
X801339Y1294889D01*
X798012Y1295780D01*
D02*
G37*
G36*
X252266Y1303780D02*
X248114D01*
X244041Y1302970D01*
X240205Y1301381D01*
X236752Y1299074D01*
X233816Y1296138D01*
X231509Y1292685D01*
X229920Y1288849D01*
X229110Y1284776D01*
Y1280624D01*
X229920Y1276551D01*
X231509Y1272715D01*
X233816Y1269262D01*
X236752Y1266326D01*
X240205Y1264019D01*
X244041Y1262430D01*
X248114Y1261620D01*
X252266D01*
X256339Y1262430D01*
X260175Y1264019D01*
X263628Y1266326D01*
X266564Y1269262D01*
X268871Y1272715D01*
X270460Y1276551D01*
X271270Y1280624D01*
Y1284776D01*
X270460Y1288849D01*
X268871Y1292685D01*
X266564Y1296138D01*
X263628Y1299074D01*
X260175Y1301381D01*
X256339Y1302970D01*
X252266Y1303780D01*
D02*
G37*
G36*
X1656080Y1264216D02*
Y1253490D01*
X1666255D01*
X1665946Y1255839D01*
X1664794Y1258619D01*
X1662962Y1261007D01*
X1660574Y1262839D01*
X1657794Y1263991D01*
X1656080Y1264216D01*
D02*
G37*
G36*
X1666255Y1250950D02*
X1656080D01*
Y1240224D01*
X1657794Y1240449D01*
X1660574Y1241601D01*
X1662962Y1243433D01*
X1664794Y1245821D01*
X1665946Y1248601D01*
X1666255Y1250950D01*
D02*
G37*
G36*
X1591767Y1347291D02*
X391556D01*
X389733Y1347051D01*
X388033Y1346347D01*
X386574Y1345228D01*
X334416Y1293070D01*
X333297Y1291611D01*
X332593Y1289912D01*
X332353Y1288088D01*
Y1284932D01*
X332593Y1283108D01*
X333297Y1281409D01*
X334416Y1279950D01*
X351633Y1262733D01*
X353092Y1261614D01*
X354792Y1260910D01*
X356615Y1260670D01*
X552705D01*
X554528Y1260910D01*
X556228Y1261614D01*
X557687Y1262733D01*
X564868Y1269915D01*
X565968Y1269620D01*
X569412D01*
X572739Y1270511D01*
X575721Y1272233D01*
X578157Y1274669D01*
X579879Y1277651D01*
X580770Y1280978D01*
Y1284422D01*
X579879Y1287749D01*
X578157Y1290731D01*
X575721Y1293167D01*
X572739Y1294889D01*
X569412Y1295780D01*
X567130D01*
X566604Y1297050D01*
X593864Y1324311D01*
X1073172D01*
X1073658Y1323137D01*
X1045755Y1295235D01*
X1044636Y1293775D01*
X1043932Y1292076D01*
X1043695Y1290276D01*
X1038841Y1285422D01*
X1037614Y1285751D01*
X1037079Y1287749D01*
X1035357Y1290731D01*
X1032921Y1293167D01*
X1029939Y1294889D01*
X1026612Y1295780D01*
X1023168D01*
X1019841Y1294889D01*
X1016859Y1293167D01*
X1014423Y1290731D01*
X1012897Y1288088D01*
X1012493Y1287975D01*
X1011887D01*
X1011483Y1288088D01*
X1009957Y1290731D01*
X1007521Y1293167D01*
X1004539Y1294889D01*
X1001212Y1295780D01*
X997768D01*
X994441Y1294889D01*
X991459Y1293167D01*
X989023Y1290731D01*
X987497Y1288088D01*
X987093Y1287975D01*
X986487D01*
X986083Y1288088D01*
X984557Y1290731D01*
X982121Y1293167D01*
X979139Y1294889D01*
X975812Y1295780D01*
X972368D01*
X969041Y1294889D01*
X966059Y1293167D01*
X963623Y1290731D01*
X962097Y1288088D01*
X961693Y1287975D01*
X961087D01*
X960683Y1288088D01*
X959157Y1290731D01*
X956721Y1293167D01*
X953739Y1294889D01*
X950412Y1295780D01*
X946968D01*
X943641Y1294889D01*
X940659Y1293167D01*
X938223Y1290731D01*
X936697Y1288088D01*
X936293Y1287975D01*
X935687D01*
X935283Y1288088D01*
X933757Y1290731D01*
X931321Y1293167D01*
X928339Y1294889D01*
X925012Y1295780D01*
X921568D01*
X918241Y1294889D01*
X915259Y1293167D01*
X912823Y1290731D01*
X911297Y1288088D01*
X910893Y1287975D01*
X910287D01*
X909883Y1288088D01*
X908357Y1290731D01*
X905921Y1293167D01*
X902939Y1294889D01*
X899612Y1295780D01*
X896168D01*
X892841Y1294889D01*
X889859Y1293167D01*
X887423Y1290731D01*
X885897Y1288088D01*
X885493Y1287975D01*
X884887D01*
X884483Y1288088D01*
X882957Y1290731D01*
X880521Y1293167D01*
X877539Y1294889D01*
X874212Y1295780D01*
X870768D01*
X867441Y1294889D01*
X864459Y1293167D01*
X862023Y1290731D01*
X860497Y1288088D01*
X860093Y1287975D01*
X859487D01*
X859083Y1288088D01*
X857557Y1290731D01*
X855121Y1293167D01*
X852139Y1294889D01*
X848812Y1295780D01*
X845368D01*
X842041Y1294889D01*
X839059Y1293167D01*
X836623Y1290731D01*
X834901Y1287749D01*
X834010Y1284422D01*
Y1280978D01*
X834901Y1277651D01*
X836623Y1274669D01*
X839059Y1272233D01*
X842041Y1270511D01*
X845368Y1269620D01*
X848812D01*
X852139Y1270511D01*
X855121Y1272233D01*
X857557Y1274669D01*
X859083Y1277312D01*
X859487Y1277425D01*
X860093D01*
X860497Y1277312D01*
X862023Y1274669D01*
X864459Y1272233D01*
X867441Y1270511D01*
X870768Y1269620D01*
X874212D01*
X877539Y1270511D01*
X880521Y1272233D01*
X882957Y1274669D01*
X884483Y1277312D01*
X884887Y1277425D01*
X885493D01*
X885897Y1277312D01*
X887423Y1274669D01*
X889859Y1272233D01*
X892841Y1270511D01*
X896168Y1269620D01*
X899612D01*
X902939Y1270511D01*
X905921Y1272233D01*
X908357Y1274669D01*
X909883Y1277312D01*
X910287Y1277425D01*
X910893D01*
X911297Y1277312D01*
X912823Y1274669D01*
X915259Y1272233D01*
X918241Y1270511D01*
X921568Y1269620D01*
X925012D01*
X928339Y1270511D01*
X931321Y1272233D01*
X933757Y1274669D01*
X935283Y1277312D01*
X935687Y1277425D01*
X936293D01*
X936697Y1277312D01*
X938223Y1274669D01*
X940659Y1272233D01*
X943641Y1270511D01*
X946968Y1269620D01*
X950412D01*
X953739Y1270511D01*
X956721Y1272233D01*
X959157Y1274669D01*
X960683Y1277312D01*
X961087Y1277425D01*
X961693D01*
X962097Y1277312D01*
X963623Y1274669D01*
X966059Y1272233D01*
X969041Y1270511D01*
X972368Y1269620D01*
X975812D01*
X979139Y1270511D01*
X982121Y1272233D01*
X984557Y1274669D01*
X986083Y1277312D01*
X986487Y1277425D01*
X987093D01*
X987497Y1277312D01*
X989023Y1274669D01*
X991459Y1272233D01*
X994441Y1270511D01*
X997768Y1269620D01*
X1001212D01*
X1004539Y1270511D01*
X1007521Y1272233D01*
X1009957Y1274669D01*
X1011483Y1277312D01*
X1011887Y1277425D01*
X1012493D01*
X1012897Y1277312D01*
X1014423Y1274669D01*
X1016859Y1272233D01*
X1019841Y1270511D01*
X1023168Y1269620D01*
X1026612D01*
X1027252Y1269791D01*
X1028260Y1269018D01*
Y1069085D01*
X1028500Y1067262D01*
X1029204Y1065562D01*
X1030323Y1064103D01*
X1037505Y1056922D01*
X1037210Y1055822D01*
Y1052378D01*
X1038101Y1049051D01*
X1039823Y1046069D01*
X1042259Y1043633D01*
X1044902Y1042107D01*
X1045015Y1041703D01*
Y1041097D01*
X1044902Y1040693D01*
X1042259Y1039167D01*
X1039823Y1036731D01*
X1038101Y1033749D01*
X1037210Y1030422D01*
Y1026978D01*
X1038101Y1023651D01*
X1039823Y1020669D01*
X1042259Y1018233D01*
X1044902Y1016707D01*
X1045015Y1016303D01*
Y1015697D01*
X1044902Y1015293D01*
X1042259Y1013767D01*
X1039823Y1011331D01*
X1039254Y1010345D01*
X1005968D01*
X1004144Y1010105D01*
X1002445Y1009401D01*
X1000986Y1008282D01*
X905043Y912339D01*
X335578D01*
X333755Y912099D01*
X332056Y911395D01*
X330597Y910276D01*
X129893Y709572D01*
X128774Y708113D01*
X128070Y706414D01*
X127830Y704591D01*
Y603393D01*
X128070Y601570D01*
X128774Y599870D01*
X129893Y598411D01*
X147561Y580743D01*
X149020Y579624D01*
X150720Y578920D01*
X152543Y578680D01*
X169165D01*
X170988Y578920D01*
X172688Y579624D01*
X174147Y580743D01*
X181328Y587925D01*
X182428Y587630D01*
X185872D01*
X189199Y588521D01*
X192181Y590243D01*
X194617Y592679D01*
X196143Y595322D01*
X196547Y595435D01*
X197153D01*
X197557Y595322D01*
X199083Y592679D01*
X201519Y590243D01*
X204501Y588521D01*
X207828Y587630D01*
X211272D01*
X214599Y588521D01*
X217581Y590243D01*
X220017Y592679D01*
X221543Y595322D01*
X221947Y595435D01*
X222553D01*
X222957Y595322D01*
X224483Y592679D01*
X226919Y590243D01*
X229901Y588521D01*
X233228Y587630D01*
X236672D01*
X239999Y588521D01*
X242981Y590243D01*
X245417Y592679D01*
X245986Y593665D01*
X494722D01*
X501293Y587093D01*
X502753Y585974D01*
X504452Y585270D01*
X506275Y585030D01*
X769875D01*
X771698Y585270D01*
X773398Y585974D01*
X774857Y587093D01*
X782038Y594275D01*
X783138Y593980D01*
X786582D01*
X789909Y594871D01*
X792891Y596593D01*
X795327Y599029D01*
X795896Y600015D01*
X848109D01*
X862301Y585823D01*
X863760Y584704D01*
X865459Y584000D01*
X867283Y583760D01*
X1302005D01*
X1303828Y584000D01*
X1305528Y584704D01*
X1306987Y585823D01*
X1314168Y593005D01*
X1315268Y592710D01*
X1318712D01*
X1322039Y593601D01*
X1325021Y595323D01*
X1327457Y597759D01*
X1329179Y600741D01*
X1330070Y604068D01*
Y607512D01*
X1329775Y608612D01*
X1381027Y659863D01*
X1382146Y661322D01*
X1382850Y663022D01*
X1383090Y664845D01*
Y1130557D01*
X1420750Y1168216D01*
X1422020Y1167691D01*
Y1165408D01*
X1422911Y1162081D01*
X1424633Y1159099D01*
X1427069Y1156663D01*
X1429712Y1155137D01*
X1429825Y1154733D01*
Y1154127D01*
X1429712Y1153723D01*
X1427069Y1152197D01*
X1424633Y1149761D01*
X1422911Y1146779D01*
X1422020Y1143452D01*
Y1140008D01*
X1422911Y1136681D01*
X1424633Y1133699D01*
X1427069Y1131263D01*
X1429712Y1129737D01*
X1429825Y1129333D01*
Y1128727D01*
X1429712Y1128323D01*
X1427069Y1126797D01*
X1424633Y1124361D01*
X1422911Y1121379D01*
X1422020Y1118052D01*
Y1114608D01*
X1422911Y1111281D01*
X1424633Y1108299D01*
X1427069Y1105863D01*
X1429712Y1104337D01*
X1429825Y1103933D01*
Y1103327D01*
X1429712Y1102923D01*
X1427069Y1101397D01*
X1424633Y1098961D01*
X1422911Y1095979D01*
X1422020Y1092652D01*
Y1089208D01*
X1422911Y1085881D01*
X1424633Y1082899D01*
X1427069Y1080463D01*
X1429712Y1078937D01*
X1429825Y1078533D01*
Y1077927D01*
X1429712Y1077523D01*
X1427069Y1075997D01*
X1424633Y1073561D01*
X1422911Y1070579D01*
X1422020Y1067252D01*
Y1063808D01*
X1422911Y1060481D01*
X1424633Y1057499D01*
X1427069Y1055063D01*
X1429712Y1053537D01*
X1429825Y1053133D01*
Y1052527D01*
X1429712Y1052123D01*
X1427069Y1050597D01*
X1424633Y1048161D01*
X1422911Y1045179D01*
X1422020Y1041852D01*
Y1038408D01*
X1422911Y1035081D01*
X1424633Y1032099D01*
X1427069Y1029663D01*
X1429712Y1028137D01*
X1429825Y1027733D01*
Y1027127D01*
X1429712Y1026723D01*
X1427069Y1025197D01*
X1424633Y1022761D01*
X1422911Y1019779D01*
X1422020Y1016452D01*
Y1013008D01*
X1422911Y1009681D01*
X1424633Y1006699D01*
X1427069Y1004263D01*
X1429712Y1002737D01*
X1429825Y1002333D01*
Y1001727D01*
X1429712Y1001323D01*
X1427069Y999797D01*
X1424633Y997361D01*
X1422911Y994379D01*
X1422020Y991052D01*
Y987608D01*
X1422911Y984281D01*
X1424633Y981299D01*
X1427069Y978863D01*
X1429712Y977337D01*
X1429825Y976933D01*
Y976327D01*
X1429712Y975923D01*
X1427069Y974397D01*
X1424633Y971961D01*
X1422911Y968979D01*
X1422020Y965652D01*
Y962208D01*
X1422911Y958881D01*
X1424633Y955899D01*
X1427069Y953463D01*
X1429712Y951937D01*
X1429825Y951533D01*
Y950927D01*
X1429712Y950523D01*
X1427069Y948997D01*
X1424633Y946561D01*
X1422911Y943579D01*
X1422020Y940252D01*
Y936808D01*
X1422911Y933481D01*
X1424633Y930499D01*
X1427069Y928063D01*
X1429712Y926537D01*
X1429825Y926133D01*
Y925527D01*
X1429712Y925123D01*
X1427069Y923597D01*
X1424633Y921161D01*
X1422911Y918179D01*
X1422020Y914852D01*
Y911408D01*
X1422911Y908081D01*
X1424633Y905099D01*
X1427069Y902663D01*
X1429712Y901137D01*
X1429825Y900733D01*
Y900127D01*
X1429712Y899723D01*
X1427069Y898197D01*
X1424633Y895761D01*
X1422911Y892779D01*
X1422020Y889452D01*
Y886008D01*
X1422911Y882681D01*
X1424633Y879699D01*
X1427069Y877263D01*
X1429712Y875737D01*
X1429825Y875333D01*
Y874727D01*
X1429712Y874323D01*
X1427069Y872797D01*
X1424633Y870361D01*
X1422911Y867379D01*
X1422020Y864052D01*
Y860608D01*
X1422911Y857281D01*
X1424633Y854299D01*
X1427069Y851863D01*
X1430051Y850141D01*
X1433378Y849250D01*
X1436822D01*
X1440149Y850141D01*
X1443131Y851863D01*
X1445567Y854299D01*
X1447289Y857281D01*
X1448180Y860608D01*
Y864052D01*
X1447289Y867379D01*
X1445567Y870361D01*
X1443131Y872797D01*
X1440488Y874323D01*
X1440375Y874727D01*
Y875333D01*
X1440488Y875737D01*
X1443131Y877263D01*
X1445567Y879699D01*
X1447289Y882681D01*
X1448180Y886008D01*
Y889452D01*
X1447289Y892779D01*
X1445567Y895761D01*
X1443131Y898197D01*
X1440488Y899723D01*
X1440375Y900127D01*
Y900733D01*
X1440488Y901137D01*
X1443131Y902663D01*
X1445567Y905099D01*
X1447289Y908081D01*
X1448180Y911408D01*
Y914852D01*
X1447289Y918179D01*
X1445567Y921161D01*
X1443131Y923597D01*
X1440488Y925123D01*
X1440375Y925527D01*
Y926133D01*
X1440488Y926537D01*
X1443131Y928063D01*
X1445567Y930499D01*
X1447289Y933481D01*
X1448180Y936808D01*
Y940252D01*
X1447289Y943579D01*
X1445567Y946561D01*
X1443131Y948997D01*
X1440488Y950523D01*
X1440375Y950927D01*
Y951533D01*
X1440488Y951937D01*
X1443131Y953463D01*
X1445567Y955899D01*
X1447289Y958881D01*
X1448180Y962208D01*
Y965652D01*
X1447289Y968979D01*
X1445567Y971961D01*
X1443131Y974397D01*
X1440488Y975923D01*
X1440375Y976327D01*
Y976933D01*
X1440488Y977337D01*
X1443131Y978863D01*
X1445567Y981299D01*
X1447289Y984281D01*
X1448180Y987608D01*
Y991052D01*
X1447289Y994379D01*
X1445567Y997361D01*
X1443131Y999797D01*
X1440488Y1001323D01*
X1440375Y1001727D01*
Y1002333D01*
X1440488Y1002737D01*
X1443131Y1004263D01*
X1445567Y1006699D01*
X1447289Y1009681D01*
X1448180Y1013008D01*
Y1016452D01*
X1447289Y1019779D01*
X1445567Y1022761D01*
X1443131Y1025197D01*
X1440488Y1026723D01*
X1440375Y1027127D01*
Y1027733D01*
X1440488Y1028137D01*
X1443131Y1029663D01*
X1445567Y1032099D01*
X1447289Y1035081D01*
X1448180Y1038408D01*
Y1041852D01*
X1447289Y1045179D01*
X1445567Y1048161D01*
X1443131Y1050597D01*
X1440488Y1052123D01*
X1440375Y1052527D01*
Y1053133D01*
X1440488Y1053537D01*
X1443131Y1055063D01*
X1445567Y1057499D01*
X1447289Y1060481D01*
X1448180Y1063808D01*
Y1067252D01*
X1447289Y1070579D01*
X1445567Y1073561D01*
X1443131Y1075997D01*
X1440488Y1077523D01*
X1440375Y1077927D01*
Y1078533D01*
X1440488Y1078937D01*
X1443131Y1080463D01*
X1445567Y1082899D01*
X1447289Y1085881D01*
X1448180Y1089208D01*
Y1092652D01*
X1447289Y1095979D01*
X1445567Y1098961D01*
X1443131Y1101397D01*
X1440488Y1102923D01*
X1440375Y1103327D01*
Y1103933D01*
X1440488Y1104337D01*
X1443131Y1105863D01*
X1445567Y1108299D01*
X1447289Y1111281D01*
X1448180Y1114608D01*
Y1118052D01*
X1447289Y1121379D01*
X1445567Y1124361D01*
X1443131Y1126797D01*
X1440488Y1128323D01*
X1440375Y1128727D01*
Y1129333D01*
X1440488Y1129737D01*
X1443131Y1131263D01*
X1445567Y1133699D01*
X1447289Y1136681D01*
X1448180Y1140008D01*
Y1143452D01*
X1447289Y1146779D01*
X1445567Y1149761D01*
X1443131Y1152197D01*
X1440488Y1153723D01*
X1440375Y1154127D01*
Y1154733D01*
X1440488Y1155137D01*
X1443131Y1156663D01*
X1445567Y1159099D01*
X1447289Y1162081D01*
X1448180Y1165408D01*
Y1168852D01*
X1447289Y1172179D01*
X1445567Y1175161D01*
X1443131Y1177597D01*
X1440488Y1179123D01*
X1440375Y1179527D01*
Y1180133D01*
X1440488Y1180537D01*
X1443131Y1182063D01*
X1445567Y1184499D01*
X1447289Y1187481D01*
X1448180Y1190808D01*
Y1194252D01*
X1447885Y1195352D01*
X1455067Y1202533D01*
X1456186Y1203992D01*
X1456890Y1205692D01*
X1457130Y1207515D01*
Y1265786D01*
X1456890Y1267610D01*
X1456186Y1269309D01*
X1455067Y1270768D01*
X1442464Y1283371D01*
X1442950Y1284545D01*
X1499251D01*
X1499755Y1283970D01*
X1500213Y1280489D01*
X1501557Y1277245D01*
X1503694Y1274459D01*
X1505368Y1273175D01*
X1504937Y1271905D01*
X1499870D01*
Y1245235D01*
X1535430D01*
Y1261942D01*
X1551479Y1277991D01*
X1555165D01*
X1556989Y1278231D01*
X1558688Y1278935D01*
X1560147Y1280054D01*
X1576605Y1296512D01*
X1577020Y1296401D01*
X1580200D01*
X1583273Y1297224D01*
X1584450Y1297904D01*
X1585550Y1297269D01*
Y1239659D01*
X1580615Y1234725D01*
X1580200Y1234836D01*
X1577020D01*
X1573947Y1234013D01*
X1571193Y1232422D01*
X1568944Y1230173D01*
X1567353Y1227419D01*
X1566530Y1224346D01*
Y1221166D01*
X1567353Y1218093D01*
X1568944Y1215339D01*
X1571193Y1213090D01*
X1573947Y1211499D01*
X1575260Y1211147D01*
X1575589Y1209921D01*
X1563974Y1198305D01*
X1531650D01*
X1530719Y1199519D01*
X1528300Y1201375D01*
X1525483Y1202542D01*
X1522460Y1202940D01*
X1520460D01*
X1517437Y1202542D01*
X1514620Y1201375D01*
X1512201Y1199519D01*
X1510345Y1197100D01*
X1509178Y1194283D01*
X1508780Y1191260D01*
X1508980Y1189743D01*
X1501993Y1182757D01*
X1500874Y1181298D01*
X1500170Y1179598D01*
X1499930Y1177775D01*
Y1109495D01*
X1500170Y1107672D01*
X1500874Y1105972D01*
X1501993Y1104513D01*
X1540730Y1065777D01*
X1540530Y1064260D01*
X1540928Y1061237D01*
X1542095Y1058420D01*
X1543951Y1056001D01*
X1546370Y1054145D01*
X1549187Y1052978D01*
X1552210Y1052580D01*
X1554210D01*
X1557233Y1052978D01*
X1560050Y1054145D01*
X1562469Y1056001D01*
X1564325Y1058420D01*
X1565492Y1061237D01*
X1565890Y1064260D01*
X1565492Y1067283D01*
X1564325Y1070100D01*
X1562469Y1072519D01*
X1560050Y1074375D01*
X1557233Y1075542D01*
X1554210Y1075940D01*
X1552210D01*
X1550693Y1075740D01*
X1546987Y1079447D01*
X1547473Y1080620D01*
X1551940D01*
Y1088390D01*
X1543170D01*
Y1084923D01*
X1541997Y1084437D01*
X1514020Y1112413D01*
Y1154280D01*
X1524077D01*
X1564468Y1113888D01*
X1565927Y1112769D01*
X1567627Y1112065D01*
X1569450Y1111825D01*
X1703464D01*
X1704033Y1110839D01*
X1706469Y1108403D01*
X1709451Y1106681D01*
X1712778Y1105790D01*
X1716222D01*
X1719549Y1106681D01*
X1722531Y1108403D01*
X1724967Y1110839D01*
X1726689Y1113821D01*
X1727580Y1117148D01*
Y1120592D01*
X1726689Y1123919D01*
X1724967Y1126901D01*
X1722531Y1129337D01*
X1719888Y1130863D01*
X1719775Y1131267D01*
Y1131873D01*
X1719888Y1132277D01*
X1722531Y1133803D01*
X1724967Y1136239D01*
X1726689Y1139221D01*
X1727580Y1142548D01*
Y1145992D01*
X1726689Y1149319D01*
X1724967Y1152301D01*
X1722531Y1154737D01*
X1719549Y1156459D01*
X1716222Y1157350D01*
X1712778D01*
X1709451Y1156459D01*
X1706469Y1154737D01*
X1704033Y1152301D01*
X1703464Y1151315D01*
X1647838D01*
X1639427Y1159727D01*
X1639913Y1160900D01*
X1643380D01*
Y1170940D01*
Y1180980D01*
X1638552D01*
X1637715Y1181935D01*
X1637736Y1182100D01*
Y1238250D01*
X1643380D01*
Y1245993D01*
X1644650Y1246245D01*
X1644826Y1245821D01*
X1646658Y1243433D01*
X1649046Y1241601D01*
X1651826Y1240449D01*
X1653540Y1240224D01*
Y1252220D01*
Y1264216D01*
X1651826Y1263991D01*
X1649046Y1262839D01*
X1646658Y1261007D01*
X1644826Y1258619D01*
X1644650Y1258195D01*
X1643380Y1258447D01*
Y1266190D01*
X1617420D01*
Y1321638D01*
X1617180Y1323462D01*
X1616476Y1325161D01*
X1615357Y1326620D01*
X1596749Y1345228D01*
X1595290Y1346347D01*
X1593591Y1347051D01*
X1591767Y1347291D01*
D02*
G37*
G36*
X772966Y1252980D02*
X768814D01*
X764741Y1252170D01*
X760905Y1250581D01*
X757452Y1248274D01*
X754516Y1245338D01*
X752209Y1241885D01*
X750620Y1238049D01*
X749810Y1233976D01*
Y1229824D01*
X750620Y1225751D01*
X752209Y1221915D01*
X754516Y1218462D01*
X757452Y1215526D01*
X760905Y1213219D01*
X764741Y1211630D01*
X768814Y1210820D01*
X772966D01*
X777039Y1211630D01*
X780875Y1213219D01*
X784328Y1215526D01*
X787264Y1218462D01*
X789571Y1221915D01*
X791160Y1225751D01*
X791970Y1229824D01*
Y1233976D01*
X791160Y1238049D01*
X789571Y1241885D01*
X787264Y1245338D01*
X784328Y1248274D01*
X780875Y1250581D01*
X777039Y1252170D01*
X772966Y1252980D01*
D02*
G37*
G36*
X1653690Y1180980D02*
X1645920D01*
Y1172210D01*
X1653690D01*
Y1180980D01*
D02*
G37*
G36*
X1715888Y1180210D02*
X1715770D01*
Y1170940D01*
X1725040D01*
Y1171058D01*
X1724322Y1173738D01*
X1722934Y1176142D01*
X1720972Y1178104D01*
X1718568Y1179492D01*
X1715888Y1180210D01*
D02*
G37*
G36*
X1713230D02*
X1713112D01*
X1710432Y1179492D01*
X1708028Y1178104D01*
X1706066Y1176142D01*
X1704678Y1173738D01*
X1703960Y1171058D01*
Y1170940D01*
X1713230D01*
Y1180210D01*
D02*
G37*
G36*
X1653690Y1169670D02*
X1645920D01*
Y1160900D01*
X1653690D01*
Y1169670D01*
D02*
G37*
G36*
X1725040Y1168400D02*
X1715770D01*
Y1159130D01*
X1715888D01*
X1718568Y1159848D01*
X1720972Y1161236D01*
X1722934Y1163198D01*
X1724322Y1165602D01*
X1725040Y1168282D01*
Y1168400D01*
D02*
G37*
G36*
X1713230D02*
X1703960D01*
Y1168282D01*
X1704678Y1165602D01*
X1706066Y1163198D01*
X1708028Y1161236D01*
X1710432Y1159848D01*
X1713112Y1159130D01*
X1713230D01*
Y1168400D01*
D02*
G37*
G36*
X1563250Y1098700D02*
X1554480D01*
Y1090930D01*
X1563250D01*
Y1098700D01*
D02*
G37*
G36*
X1551940D02*
X1543170D01*
Y1090930D01*
X1551940D01*
Y1098700D01*
D02*
G37*
G36*
X1563250Y1088390D02*
X1554480D01*
Y1080620D01*
X1563250D01*
Y1088390D01*
D02*
G37*
G36*
X1512688Y1017650D02*
X1512570D01*
Y1008380D01*
X1521840D01*
Y1008498D01*
X1521122Y1011178D01*
X1519734Y1013582D01*
X1517772Y1015544D01*
X1515368Y1016932D01*
X1512688Y1017650D01*
D02*
G37*
G36*
X1510030D02*
X1509912D01*
X1507232Y1016932D01*
X1504828Y1015544D01*
X1502866Y1013582D01*
X1501478Y1011178D01*
X1500760Y1008498D01*
Y1008380D01*
X1510030D01*
Y1017650D01*
D02*
G37*
G36*
X1521840Y1005840D02*
X1512570D01*
Y996570D01*
X1512688D01*
X1515368Y997288D01*
X1517772Y998676D01*
X1519734Y1000638D01*
X1521122Y1003042D01*
X1521840Y1005722D01*
Y1005840D01*
D02*
G37*
G36*
X1510030D02*
X1500760D01*
Y1005722D01*
X1501478Y1003042D01*
X1502866Y1000638D01*
X1504828Y998676D01*
X1507232Y997288D01*
X1509912Y996570D01*
X1510030D01*
Y1005840D01*
D02*
G37*
G36*
X1907992Y1020190D02*
X1904548D01*
X1901221Y1019299D01*
X1898239Y1017577D01*
X1895803Y1015141D01*
X1894081Y1012159D01*
X1893190Y1008832D01*
Y1005388D01*
X1894081Y1002061D01*
X1895803Y999079D01*
X1898239Y996643D01*
X1901221Y994921D01*
X1904548Y994030D01*
X1907992D01*
X1911319Y994921D01*
X1914301Y996643D01*
X1916737Y999079D01*
X1918459Y1002061D01*
X1919350Y1005388D01*
Y1008832D01*
X1918459Y1012159D01*
X1916737Y1015141D01*
X1914301Y1017577D01*
X1911319Y1019299D01*
X1907992Y1020190D01*
D02*
G37*
G36*
X1561636Y1023110D02*
X1557484D01*
X1553411Y1022300D01*
X1549575Y1020711D01*
X1546122Y1018404D01*
X1543186Y1015468D01*
X1540879Y1012015D01*
X1539290Y1008179D01*
X1538480Y1004106D01*
Y999954D01*
X1539290Y995881D01*
X1540879Y992045D01*
X1543186Y988592D01*
X1546122Y985656D01*
X1549575Y983349D01*
X1553411Y981760D01*
X1557484Y980950D01*
X1561636D01*
X1565709Y981760D01*
X1569545Y983349D01*
X1572998Y985656D01*
X1575934Y988592D01*
X1578241Y992045D01*
X1579830Y995881D01*
X1580640Y999954D01*
Y1004106D01*
X1579830Y1008179D01*
X1578241Y1012015D01*
X1575934Y1015468D01*
X1572998Y1018404D01*
X1569545Y1020711D01*
X1565709Y1022300D01*
X1561636Y1023110D01*
D02*
G37*
G36*
X1907992Y850010D02*
X1904548D01*
X1901221Y849119D01*
X1898239Y847397D01*
X1895803Y844961D01*
X1894081Y841979D01*
X1893190Y838652D01*
Y835208D01*
X1894081Y831881D01*
X1895803Y828899D01*
X1898239Y826463D01*
X1901221Y824741D01*
X1904548Y823850D01*
X1907992D01*
X1911319Y824741D01*
X1914301Y826463D01*
X1916737Y828899D01*
X1918459Y831881D01*
X1919350Y835208D01*
Y838652D01*
X1918459Y841979D01*
X1916737Y844961D01*
X1914301Y847397D01*
X1911319Y849119D01*
X1907992Y850010D01*
D02*
G37*
G36*
X1861356Y863090D02*
X1857204D01*
X1853131Y862280D01*
X1849295Y860691D01*
X1845842Y858384D01*
X1842906Y855448D01*
X1840599Y851995D01*
X1839010Y848159D01*
X1838200Y844086D01*
Y839934D01*
X1839010Y835861D01*
X1840599Y832025D01*
X1842906Y828572D01*
X1845842Y825636D01*
X1849295Y823329D01*
X1853131Y821740D01*
X1857204Y820930D01*
X1861356D01*
X1865429Y821740D01*
X1869265Y823329D01*
X1872718Y825636D01*
X1875654Y828572D01*
X1877961Y832025D01*
X1879550Y835861D01*
X1880360Y839934D01*
Y844086D01*
X1879550Y848159D01*
X1877961Y851995D01*
X1875654Y855448D01*
X1872718Y858384D01*
X1869265Y860691D01*
X1865429Y862280D01*
X1861356Y863090D01*
D02*
G37*
G36*
X1426918Y841770D02*
X1422962D01*
X1419083Y840998D01*
X1415429Y839485D01*
X1412140Y837287D01*
X1409343Y834490D01*
X1407145Y831201D01*
X1405632Y827547D01*
X1404860Y823668D01*
Y819712D01*
X1405632Y815833D01*
X1407145Y812179D01*
X1409343Y808890D01*
X1412140Y806093D01*
X1415429Y803895D01*
X1419083Y802382D01*
X1422962Y801610D01*
X1426918D01*
X1430797Y802382D01*
X1434451Y803895D01*
X1437740Y806093D01*
X1440537Y808890D01*
X1442735Y812179D01*
X1444248Y815833D01*
X1445020Y819712D01*
Y823668D01*
X1444248Y827547D01*
X1442735Y831201D01*
X1440537Y834490D01*
X1437740Y837287D01*
X1434451Y839485D01*
X1430797Y840998D01*
X1426918Y841770D01*
D02*
G37*
G36*
X1043378Y569990D02*
X1039422D01*
X1035543Y569218D01*
X1031889Y567705D01*
X1028600Y565507D01*
X1025803Y562710D01*
X1023605Y559421D01*
X1022092Y555767D01*
X1021320Y551888D01*
Y547932D01*
X1022092Y544053D01*
X1023605Y540399D01*
X1025803Y537110D01*
X1028600Y534313D01*
X1031889Y532115D01*
X1035543Y530602D01*
X1039422Y529830D01*
X1043378D01*
X1047257Y530602D01*
X1050911Y532115D01*
X1054200Y534313D01*
X1056997Y537110D01*
X1059195Y540399D01*
X1060708Y544053D01*
X1061480Y547932D01*
Y551888D01*
X1060708Y555767D01*
X1059195Y559421D01*
X1056997Y562710D01*
X1054200Y565507D01*
X1050911Y567705D01*
X1047257Y569218D01*
X1043378Y569990D01*
D02*
G37*
G36*
X643328D02*
X639372D01*
X635493Y569218D01*
X631839Y567705D01*
X628550Y565507D01*
X625753Y562710D01*
X623555Y559421D01*
X622042Y555767D01*
X621270Y551888D01*
Y547932D01*
X622042Y544053D01*
X623555Y540399D01*
X625753Y537110D01*
X628550Y534313D01*
X631839Y532115D01*
X635493Y530602D01*
X639372Y529830D01*
X643328D01*
X647207Y530602D01*
X650861Y532115D01*
X654150Y534313D01*
X656947Y537110D01*
X659145Y540399D01*
X660658Y544053D01*
X661430Y547932D01*
Y551888D01*
X660658Y555767D01*
X659145Y559421D01*
X656947Y562710D01*
X654150Y565507D01*
X650861Y567705D01*
X647207Y569218D01*
X643328Y569990D01*
D02*
G37*
G36*
X1575508Y568720D02*
X1571552D01*
X1567673Y567948D01*
X1564019Y566435D01*
X1560730Y564237D01*
X1557933Y561440D01*
X1555735Y558151D01*
X1554222Y554497D01*
X1553450Y550618D01*
Y546662D01*
X1554222Y542783D01*
X1555735Y539129D01*
X1557933Y535840D01*
X1560730Y533043D01*
X1564019Y530845D01*
X1567673Y529332D01*
X1571552Y528560D01*
X1575508D01*
X1579387Y529332D01*
X1583041Y530845D01*
X1586330Y533043D01*
X1589127Y535840D01*
X1591325Y539129D01*
X1592838Y542783D01*
X1593610Y546662D01*
Y550618D01*
X1592838Y554497D01*
X1591325Y558151D01*
X1589127Y561440D01*
X1586330Y564237D01*
X1583041Y566435D01*
X1579387Y567948D01*
X1575508Y568720D01*
D02*
G37*
G36*
X1175458D02*
X1171502D01*
X1167623Y567948D01*
X1163969Y566435D01*
X1160680Y564237D01*
X1157883Y561440D01*
X1155685Y558151D01*
X1154172Y554497D01*
X1153400Y550618D01*
Y546662D01*
X1154172Y542783D01*
X1155685Y539129D01*
X1157883Y535840D01*
X1160680Y533043D01*
X1163969Y530845D01*
X1167623Y529332D01*
X1171502Y528560D01*
X1175458D01*
X1179337Y529332D01*
X1182991Y530845D01*
X1186280Y533043D01*
X1189077Y535840D01*
X1191275Y539129D01*
X1192788Y542783D01*
X1193560Y546662D01*
Y550618D01*
X1192788Y554497D01*
X1191275Y558151D01*
X1189077Y561440D01*
X1186280Y564237D01*
X1182991Y566435D01*
X1179337Y567948D01*
X1175458Y568720D01*
D02*
G37*
G36*
X493468Y563640D02*
X489512D01*
X485633Y562868D01*
X481979Y561355D01*
X478690Y559157D01*
X475893Y556360D01*
X473695Y553071D01*
X472182Y549417D01*
X471410Y545538D01*
Y541582D01*
X472182Y537703D01*
X473695Y534049D01*
X475893Y530760D01*
X478690Y527963D01*
X481979Y525765D01*
X485633Y524252D01*
X489512Y523480D01*
X493468D01*
X497347Y524252D01*
X501001Y525765D01*
X504290Y527963D01*
X507087Y530760D01*
X509285Y534049D01*
X510798Y537703D01*
X511570Y541582D01*
Y545538D01*
X510798Y549417D01*
X509285Y553071D01*
X507087Y556360D01*
X504290Y559157D01*
X501001Y561355D01*
X497347Y562868D01*
X493468Y563640D01*
D02*
G37*
G36*
X93418D02*
X89462D01*
X85583Y562868D01*
X81929Y561355D01*
X78640Y559157D01*
X75843Y556360D01*
X73645Y553071D01*
X72132Y549417D01*
X71360Y545538D01*
Y541582D01*
X72132Y537703D01*
X73645Y534049D01*
X75843Y530760D01*
X78640Y527963D01*
X81929Y525765D01*
X85583Y524252D01*
X89462Y523480D01*
X93418D01*
X97297Y524252D01*
X100951Y525765D01*
X104240Y527963D01*
X107037Y530760D01*
X109235Y534049D01*
X110748Y537703D01*
X111520Y541582D01*
Y545538D01*
X110748Y549417D01*
X109235Y553071D01*
X107037Y556360D01*
X104240Y559157D01*
X100951Y561355D01*
X97297Y562868D01*
X93418Y563640D01*
D02*
G37*
G36*
X644598Y171210D02*
X640642D01*
X636763Y170438D01*
X633109Y168925D01*
X629820Y166727D01*
X627023Y163930D01*
X624825Y160641D01*
X623312Y156987D01*
X622540Y153108D01*
Y149152D01*
X623312Y145273D01*
X624825Y141619D01*
X627023Y138330D01*
X629820Y135533D01*
X633109Y133335D01*
X636763Y131822D01*
X640642Y131050D01*
X644598D01*
X648477Y131822D01*
X652131Y133335D01*
X655420Y135533D01*
X658217Y138330D01*
X660415Y141619D01*
X661928Y145273D01*
X662700Y149152D01*
Y153108D01*
X661928Y156987D01*
X660415Y160641D01*
X658217Y163930D01*
X655420Y166727D01*
X652131Y168925D01*
X648477Y170438D01*
X644598Y171210D01*
D02*
G37*
G36*
X1176728Y169940D02*
X1172772D01*
X1168893Y169168D01*
X1165239Y167655D01*
X1161950Y165457D01*
X1159153Y162660D01*
X1156955Y159371D01*
X1155442Y155717D01*
X1154670Y151838D01*
Y147882D01*
X1155442Y144003D01*
X1156955Y140349D01*
X1159153Y137060D01*
X1161950Y134263D01*
X1165239Y132065D01*
X1168893Y130552D01*
X1172772Y129780D01*
X1176728D01*
X1180607Y130552D01*
X1184261Y132065D01*
X1187550Y134263D01*
X1190347Y137060D01*
X1192545Y140349D01*
X1194058Y144003D01*
X1194830Y147882D01*
Y151838D01*
X1194058Y155717D01*
X1192545Y159371D01*
X1190347Y162660D01*
X1187550Y165457D01*
X1184261Y167655D01*
X1180607Y169168D01*
X1176728Y169940D01*
D02*
G37*
G36*
X1043378D02*
X1039422D01*
X1035543Y169168D01*
X1031889Y167655D01*
X1028600Y165457D01*
X1025803Y162660D01*
X1023605Y159371D01*
X1022092Y155717D01*
X1021320Y151838D01*
Y147882D01*
X1022092Y144003D01*
X1023605Y140349D01*
X1025803Y137060D01*
X1028600Y134263D01*
X1031889Y132065D01*
X1035543Y130552D01*
X1039422Y129780D01*
X1043378D01*
X1047257Y130552D01*
X1050911Y132065D01*
X1054200Y134263D01*
X1056997Y137060D01*
X1059195Y140349D01*
X1060708Y144003D01*
X1061480Y147882D01*
Y151838D01*
X1060708Y155717D01*
X1059195Y159371D01*
X1056997Y162660D01*
X1054200Y165457D01*
X1050911Y167655D01*
X1047257Y169168D01*
X1043378Y169940D01*
D02*
G37*
G36*
X1575508Y168670D02*
X1571552D01*
X1567673Y167898D01*
X1564019Y166385D01*
X1560730Y164187D01*
X1557933Y161390D01*
X1555735Y158101D01*
X1554222Y154447D01*
X1553450Y150568D01*
Y146612D01*
X1554222Y142733D01*
X1555735Y139079D01*
X1557933Y135790D01*
X1560730Y132993D01*
X1564019Y130795D01*
X1567673Y129282D01*
X1571552Y128510D01*
X1575508D01*
X1579387Y129282D01*
X1583041Y130795D01*
X1586330Y132993D01*
X1589127Y135790D01*
X1591325Y139079D01*
X1592838Y142733D01*
X1593610Y146612D01*
Y150568D01*
X1592838Y154447D01*
X1591325Y158101D01*
X1589127Y161390D01*
X1586330Y164187D01*
X1583041Y166385D01*
X1579387Y167898D01*
X1575508Y168670D01*
D02*
G37*
G36*
X94688Y164860D02*
X90732D01*
X86853Y164088D01*
X83199Y162575D01*
X79910Y160377D01*
X77113Y157580D01*
X74915Y154291D01*
X73402Y150637D01*
X72630Y146758D01*
Y142802D01*
X73402Y138923D01*
X74915Y135269D01*
X77113Y131980D01*
X79910Y129183D01*
X83199Y126985D01*
X86853Y125472D01*
X90732Y124700D01*
X94688D01*
X98567Y125472D01*
X102221Y126985D01*
X105510Y129183D01*
X108307Y131980D01*
X110505Y135269D01*
X112018Y138923D01*
X112790Y142802D01*
Y146758D01*
X112018Y150637D01*
X110505Y154291D01*
X108307Y157580D01*
X105510Y160377D01*
X102221Y162575D01*
X98567Y164088D01*
X94688Y164860D01*
D02*
G37*
G36*
X493468Y163590D02*
X489512D01*
X485633Y162818D01*
X481979Y161305D01*
X478690Y159107D01*
X475893Y156310D01*
X473695Y153021D01*
X472182Y149367D01*
X471410Y145488D01*
Y141532D01*
X472182Y137653D01*
X473695Y133999D01*
X475893Y130710D01*
X478690Y127913D01*
X481979Y125715D01*
X485633Y124202D01*
X489512Y123430D01*
X493468D01*
X497347Y124202D01*
X501001Y125715D01*
X504290Y127913D01*
X507087Y130710D01*
X509285Y133999D01*
X510798Y137653D01*
X511570Y141532D01*
Y145488D01*
X510798Y149367D01*
X509285Y153021D01*
X507087Y156310D01*
X504290Y159107D01*
X501001Y161305D01*
X497347Y162818D01*
X493468Y163590D01*
D02*
G37*
G36*
X1346318Y80390D02*
X1346200D01*
Y71120D01*
X1355470D01*
Y71238D01*
X1354752Y73918D01*
X1353364Y76322D01*
X1351402Y78284D01*
X1348998Y79672D01*
X1346318Y80390D01*
D02*
G37*
G36*
X1343660D02*
X1343542D01*
X1340862Y79672D01*
X1338458Y78284D01*
X1336496Y76322D01*
X1335108Y73918D01*
X1334390Y71238D01*
Y71120D01*
X1343660D01*
Y80390D01*
D02*
G37*
G36*
X823340Y69850D02*
X814070D01*
Y60580D01*
X814188D01*
X816868Y61298D01*
X819272Y62686D01*
X821234Y64648D01*
X822622Y67052D01*
X823340Y69732D01*
Y69850D01*
D02*
G37*
G36*
X811530D02*
X802260D01*
Y69732D01*
X802978Y67052D01*
X804366Y64648D01*
X806328Y62686D01*
X808732Y61298D01*
X811412Y60580D01*
X811530D01*
Y69850D01*
D02*
G37*
G36*
X1355470Y68580D02*
X1346200D01*
Y59310D01*
X1346318D01*
X1348998Y60028D01*
X1351402Y61416D01*
X1353364Y63378D01*
X1354752Y65782D01*
X1355470Y68462D01*
Y68580D01*
D02*
G37*
G36*
X1343660D02*
X1334390D01*
Y68462D01*
X1335108Y65782D01*
X1336496Y63378D01*
X1338458Y61416D01*
X1340862Y60028D01*
X1343542Y59310D01*
X1343660D01*
Y68580D01*
D02*
G37*
G36*
X1513022Y850010D02*
X1509578D01*
X1506251Y849119D01*
X1503269Y847397D01*
X1500833Y844961D01*
X1499111Y841979D01*
X1498220Y838652D01*
Y835208D01*
X1499111Y831881D01*
X1500833Y828899D01*
X1503269Y826463D01*
X1504255Y825894D01*
Y202308D01*
X1382166Y80220D01*
X1381047Y78761D01*
X1380343Y77062D01*
X1380155Y75632D01*
X1379731Y74899D01*
X1378840Y71572D01*
Y68128D01*
X1379135Y67028D01*
X1358777Y46670D01*
X269761D01*
X263375Y53057D01*
X263861Y54230D01*
X264278D01*
X266958Y54948D01*
X269362Y56336D01*
X271324Y58298D01*
X272712Y60702D01*
X273430Y63382D01*
Y63500D01*
X262890D01*
Y66040D01*
X273430D01*
Y66158D01*
X272712Y68838D01*
X271324Y71242D01*
X271029Y71536D01*
X271515Y72710D01*
X291977D01*
X297095Y67592D01*
X296800Y66492D01*
Y63048D01*
X297691Y59721D01*
X299413Y56739D01*
X301849Y54303D01*
X304831Y52581D01*
X308158Y51690D01*
X311602D01*
X314929Y52581D01*
X317911Y54303D01*
X320347Y56739D01*
X322069Y59721D01*
X322960Y63048D01*
Y66492D01*
X322665Y67592D01*
X334133Y79060D01*
X804175D01*
X804661Y77886D01*
X804366Y77592D01*
X802978Y75188D01*
X802260Y72508D01*
Y72390D01*
X812800D01*
X823340D01*
Y72508D01*
X822622Y75188D01*
X821234Y77592D01*
X820939Y77886D01*
X821425Y79060D01*
X841887D01*
X847005Y73942D01*
X846710Y72842D01*
Y69398D01*
X847601Y66071D01*
X849323Y63089D01*
X851759Y60653D01*
X854741Y58931D01*
X858068Y58040D01*
X861512D01*
X864839Y58931D01*
X867821Y60653D01*
X870257Y63089D01*
X871979Y66071D01*
X872870Y69398D01*
Y72842D01*
X871979Y76169D01*
X870257Y79151D01*
X867821Y81587D01*
X864839Y83309D01*
X861512Y84200D01*
X858068D01*
X856968Y83905D01*
X849787Y91087D01*
X848328Y92206D01*
X846628Y92910D01*
X844805Y93150D01*
X331215D01*
X329392Y92910D01*
X327692Y92206D01*
X326233Y91087D01*
X312702Y77555D01*
X311602Y77850D01*
X308158D01*
X307058Y77555D01*
X299877Y84737D01*
X298418Y85856D01*
X296718Y86560D01*
X294895Y86800D01*
X256683D01*
X254860Y86560D01*
X253160Y85856D01*
X251701Y84737D01*
X242923Y75959D01*
X241804Y74500D01*
X241100Y72800D01*
X240860Y70977D01*
Y58563D01*
X241100Y56740D01*
X241804Y55040D01*
X242923Y53581D01*
X261861Y34643D01*
X263320Y33524D01*
X265020Y32820D01*
X266843Y32580D01*
X1361695D01*
X1363518Y32820D01*
X1365218Y33524D01*
X1366677Y34643D01*
X1389098Y57065D01*
X1390198Y56770D01*
X1393642D01*
X1396969Y57661D01*
X1399951Y59383D01*
X1402387Y61819D01*
X1404109Y64801D01*
X1405000Y68128D01*
Y71572D01*
X1404109Y74899D01*
X1402387Y77881D01*
X1401071Y79197D01*
X1516282Y194408D01*
X1517401Y195867D01*
X1518105Y197567D01*
X1518345Y199390D01*
Y825894D01*
X1519331Y826463D01*
X1521767Y828899D01*
X1523489Y831881D01*
X1524380Y835208D01*
Y838652D01*
X1523489Y841979D01*
X1521767Y844961D01*
X1519331Y847397D01*
X1516349Y849119D01*
X1513022Y850010D01*
D02*
G37*
%LPD*%
G36*
X1568033Y1314321D02*
X1567353Y1313144D01*
X1566530Y1310071D01*
Y1306891D01*
X1566641Y1306476D01*
X1552247Y1292082D01*
X1548561D01*
X1546738Y1291841D01*
X1545039Y1291138D01*
X1543580Y1290018D01*
X1533473Y1279911D01*
X1532396Y1280631D01*
X1532612Y1281152D01*
X1532816Y1282700D01*
X1517650D01*
Y1283970D01*
X1516380D01*
Y1294858D01*
X1513205D01*
X1510387Y1294487D01*
X1507761Y1293399D01*
X1505506Y1291669D01*
X1503776Y1289414D01*
X1503677Y1289176D01*
X1502276Y1288698D01*
X1502123Y1288744D01*
X1501542Y1289190D01*
X1501376Y1289234D01*
X1501233Y1289330D01*
X1500405Y1289495D01*
X1499590Y1289713D01*
X1499419Y1289691D01*
X1499251Y1289724D01*
X1442950D01*
X1440968Y1289330D01*
X1439287Y1288207D01*
X1439287Y1288207D01*
X1438378Y1286847D01*
X1437140Y1287360D01*
X1435316Y1287600D01*
X1207553D01*
X1205730Y1287360D01*
X1204031Y1286656D01*
X1202572Y1285537D01*
X1155980Y1238945D01*
X1086726D01*
X1086157Y1239931D01*
X1083721Y1242367D01*
X1080739Y1244089D01*
X1077412Y1244980D01*
X1073968D01*
X1070641Y1244089D01*
X1067659Y1242367D01*
X1065223Y1239931D01*
X1063501Y1236949D01*
X1062610Y1233622D01*
Y1230178D01*
X1063501Y1226851D01*
X1065223Y1223869D01*
X1067659Y1221433D01*
X1070302Y1219907D01*
X1070415Y1219503D01*
Y1218897D01*
X1070302Y1218493D01*
X1067659Y1216967D01*
X1065223Y1214531D01*
X1063697Y1211888D01*
X1063293Y1211775D01*
X1062687D01*
X1062283Y1211888D01*
X1060757Y1214531D01*
X1058321Y1216967D01*
X1055339Y1218689D01*
X1052012Y1219580D01*
X1048568D01*
X1045241Y1218689D01*
X1043450Y1217654D01*
X1042350Y1218289D01*
Y1223275D01*
X1043524Y1223761D01*
X1043818Y1223466D01*
X1046222Y1222078D01*
X1048902Y1221360D01*
X1049020D01*
Y1231900D01*
Y1242440D01*
X1048902D01*
X1046222Y1241722D01*
X1043818Y1240334D01*
X1043524Y1240039D01*
X1042350Y1240525D01*
Y1269005D01*
X1053424Y1280078D01*
X1054802Y1279660D01*
X1055420Y1276551D01*
X1057009Y1272715D01*
X1059316Y1269262D01*
X1062252Y1266326D01*
X1065705Y1264019D01*
X1069541Y1262430D01*
X1073614Y1261620D01*
X1077766D01*
X1081839Y1262430D01*
X1085675Y1264019D01*
X1089128Y1266326D01*
X1092064Y1269262D01*
X1094371Y1272715D01*
X1095960Y1276551D01*
X1096770Y1280624D01*
Y1284776D01*
X1095960Y1288849D01*
X1094371Y1292685D01*
X1092064Y1296138D01*
X1089128Y1299074D01*
X1085675Y1301381D01*
X1081839Y1302970D01*
X1077766Y1303780D01*
X1075887D01*
X1075401Y1304953D01*
X1085869Y1315421D01*
X1567398D01*
X1568033Y1314321D01*
D02*
G37*
G36*
X1435788Y1282314D02*
X1436396Y1282062D01*
X1436897Y1281962D01*
X1437368Y1281767D01*
X1437603D01*
X1437678Y1281389D01*
X1438801Y1279709D01*
X1451164Y1267346D01*
X1451662Y1266697D01*
X1451844Y1266258D01*
X1451951Y1265447D01*
Y1207855D01*
X1451844Y1207044D01*
X1451662Y1206605D01*
X1451164Y1205956D01*
X1444711Y1199503D01*
X1443889Y1199153D01*
X1443026Y1199510D01*
X1441572Y1200964D01*
X1439168Y1202352D01*
X1436488Y1203070D01*
X1436370D01*
Y1192530D01*
X1435100D01*
Y1191260D01*
X1424560D01*
Y1191142D01*
X1425278Y1188462D01*
X1426666Y1186058D01*
X1428628Y1184096D01*
X1431032Y1182708D01*
X1433612Y1182017D01*
X1433752Y1181929D01*
X1434391Y1180936D01*
X1434425Y1180751D01*
X1434180Y1180210D01*
X1433378D01*
X1430051Y1179319D01*
X1427069Y1177597D01*
X1424633Y1175161D01*
X1423737Y1173609D01*
X1422732Y1173002D01*
X1420750Y1173396D01*
X1418768Y1173002D01*
X1417088Y1171879D01*
X1379428Y1134219D01*
X1378305Y1132539D01*
X1377911Y1130557D01*
Y665185D01*
X1377804Y664374D01*
X1377622Y663934D01*
X1377124Y663286D01*
X1326601Y612763D01*
X1325779Y612413D01*
X1324916Y612770D01*
X1323462Y614224D01*
X1321058Y615612D01*
X1318378Y616330D01*
X1318260D01*
Y605790D01*
X1316990D01*
Y604520D01*
X1306450D01*
Y604402D01*
X1307168Y601722D01*
X1308556Y599318D01*
X1310011Y597864D01*
X1310367Y597001D01*
X1310017Y596179D01*
X1303564Y589726D01*
X1302915Y589228D01*
X1302476Y589046D01*
X1301665Y588939D01*
X867622D01*
X866811Y589046D01*
X866372Y589228D01*
X865723Y589726D01*
X851772Y603677D01*
X850091Y604800D01*
X848109Y605194D01*
X796587D01*
X795757Y605528D01*
X795649Y605790D01*
X784860D01*
X774320D01*
Y605672D01*
X775038Y602992D01*
X776426Y600588D01*
X777880Y599134D01*
X778237Y598271D01*
X777887Y597449D01*
X771434Y590996D01*
X770786Y590498D01*
X770346Y590316D01*
X769535Y590209D01*
X506615D01*
X505804Y590316D01*
X505365Y590498D01*
X504716Y590996D01*
X498385Y597327D01*
X496704Y598450D01*
X494722Y598844D01*
X246677D01*
X245847Y599178D01*
X245739Y599440D01*
X234950D01*
Y600710D01*
X233680D01*
Y611250D01*
X233562D01*
X230882Y610532D01*
X228478Y609144D01*
X226516Y607182D01*
X225128Y604778D01*
X224437Y602198D01*
X224349Y602058D01*
X223356Y601419D01*
X223171Y601385D01*
X222630Y601630D01*
Y602432D01*
X221739Y605759D01*
X220017Y608741D01*
X217581Y611177D01*
X214938Y612703D01*
X214825Y613107D01*
Y613713D01*
X214938Y614117D01*
X217581Y615643D01*
X220017Y618079D01*
X221543Y620722D01*
X221947Y620835D01*
X222553D01*
X222957Y620722D01*
X224483Y618079D01*
X226919Y615643D01*
X229901Y613921D01*
X233228Y613030D01*
X236672D01*
X239999Y613921D01*
X242981Y615643D01*
X245417Y618079D01*
X247139Y621061D01*
X248030Y624388D01*
Y627832D01*
X247139Y631159D01*
X245417Y634141D01*
X242981Y636577D01*
X239999Y638299D01*
X236672Y639190D01*
X233228D01*
X229901Y638299D01*
X226919Y636577D01*
X224483Y634141D01*
X222957Y631498D01*
X222553Y631385D01*
X221947D01*
X221543Y631498D01*
X220017Y634141D01*
X217581Y636577D01*
X214599Y638299D01*
X211272Y639190D01*
X207828D01*
X204501Y638299D01*
X201519Y636577D01*
X199083Y634141D01*
X197557Y631498D01*
X197153Y631385D01*
X196547D01*
X196143Y631498D01*
X194617Y634141D01*
X192181Y636577D01*
X189199Y638299D01*
X185872Y639190D01*
X183589D01*
X183064Y640460D01*
X248663Y706060D01*
X507365D01*
X509188Y706300D01*
X510888Y707004D01*
X512347Y708123D01*
X591538Y787315D01*
X592638Y787020D01*
X596082D01*
X599409Y787911D01*
X602391Y789633D01*
X604827Y792069D01*
X606353Y794712D01*
X606757Y794825D01*
X607363D01*
X607767Y794712D01*
X609293Y792069D01*
X611729Y789633D01*
X614711Y787911D01*
X618038Y787020D01*
X621482D01*
X622582Y787315D01*
X657165Y752732D01*
Y651510D01*
X657405Y649687D01*
X658109Y647987D01*
X659228Y646528D01*
X695875Y609882D01*
X695580Y608782D01*
Y605338D01*
X696471Y602011D01*
X698193Y599029D01*
X700629Y596593D01*
X703611Y594871D01*
X706938Y593980D01*
X710382D01*
X713709Y594871D01*
X716691Y596593D01*
X719127Y599029D01*
X720653Y601672D01*
X721057Y601785D01*
X721663D01*
X722067Y601672D01*
X723593Y599029D01*
X726029Y596593D01*
X729011Y594871D01*
X732338Y593980D01*
X735782D01*
X739109Y594871D01*
X742091Y596593D01*
X744527Y599029D01*
X746053Y601672D01*
X746457Y601785D01*
X747063D01*
X747467Y601672D01*
X748993Y599029D01*
X751429Y596593D01*
X754411Y594871D01*
X757738Y593980D01*
X761182D01*
X764509Y594871D01*
X767491Y596593D01*
X769927Y599029D01*
X771649Y602011D01*
X772540Y605338D01*
Y608782D01*
X771649Y612109D01*
X769927Y615091D01*
X767491Y617527D01*
X764848Y619053D01*
X764735Y619457D01*
Y620063D01*
X764848Y620467D01*
X767491Y621993D01*
X769927Y624429D01*
X771453Y627072D01*
X771857Y627185D01*
X772463D01*
X772867Y627072D01*
X774393Y624429D01*
X776829Y621993D01*
X779811Y620271D01*
X783138Y619380D01*
X786582D01*
X789909Y620271D01*
X792891Y621993D01*
X795327Y624429D01*
X797049Y627411D01*
X797940Y630738D01*
Y634182D01*
X797049Y637509D01*
X795327Y640491D01*
X792891Y642927D01*
X789909Y644649D01*
X786582Y645540D01*
X783138D01*
X779811Y644649D01*
X776829Y642927D01*
X774393Y640491D01*
X772867Y637848D01*
X772463Y637735D01*
X771857D01*
X771453Y637848D01*
X769927Y640491D01*
X767491Y642927D01*
X764509Y644649D01*
X761182Y645540D01*
X757738D01*
X754411Y644649D01*
X751429Y642927D01*
X748993Y640491D01*
X747467Y637848D01*
X747063Y637735D01*
X746457D01*
X746053Y637848D01*
X744527Y640491D01*
X742091Y642927D01*
X739109Y644649D01*
X735782Y645540D01*
X732338D01*
X729011Y644649D01*
X726029Y642927D01*
X723593Y640491D01*
X722067Y637848D01*
X721663Y637735D01*
X721057D01*
X720653Y637848D01*
X719127Y640491D01*
X716691Y642927D01*
X713709Y644649D01*
X710382Y645540D01*
X706938D01*
X703611Y644649D01*
X700629Y642927D01*
X699492Y641790D01*
X697863D01*
X680145Y659508D01*
Y759332D01*
X679905Y761156D01*
X679201Y762855D01*
X678082Y764314D01*
X653842Y788554D01*
X653191Y789633D01*
X655627Y792069D01*
X657153Y794712D01*
X657557Y794825D01*
X658163D01*
X658567Y794712D01*
X660093Y792069D01*
X662529Y789633D01*
X665511Y787911D01*
X668838Y787020D01*
X672282D01*
X673382Y787315D01*
X859888Y600808D01*
X861347Y599689D01*
X863046Y598985D01*
X864870Y598745D01*
X1229754D01*
X1230323Y597759D01*
X1232759Y595323D01*
X1235741Y593601D01*
X1239068Y592710D01*
X1242512D01*
X1245839Y593601D01*
X1248821Y595323D01*
X1251257Y597759D01*
X1252783Y600402D01*
X1253187Y600515D01*
X1253793D01*
X1254197Y600402D01*
X1255723Y597759D01*
X1258159Y595323D01*
X1261141Y593601D01*
X1264468Y592710D01*
X1267912D01*
X1271239Y593601D01*
X1274221Y595323D01*
X1276657Y597759D01*
X1278183Y600402D01*
X1278587Y600515D01*
X1279193D01*
X1279597Y600402D01*
X1281123Y597759D01*
X1283559Y595323D01*
X1286541Y593601D01*
X1289868Y592710D01*
X1293312D01*
X1296639Y593601D01*
X1299621Y595323D01*
X1302057Y597759D01*
X1303779Y600741D01*
X1304670Y604068D01*
Y607512D01*
X1303779Y610839D01*
X1302057Y613821D01*
X1299621Y616257D01*
X1296978Y617783D01*
X1296865Y618187D01*
Y618793D01*
X1296978Y619197D01*
X1299621Y620723D01*
X1302057Y623159D01*
X1303583Y625802D01*
X1303987Y625915D01*
X1304593D01*
X1304997Y625802D01*
X1306523Y623159D01*
X1308959Y620723D01*
X1311941Y619001D01*
X1315268Y618110D01*
X1318712D01*
X1322039Y619001D01*
X1325021Y620723D01*
X1327457Y623159D01*
X1329179Y626141D01*
X1330070Y629468D01*
Y632912D01*
X1329179Y636239D01*
X1327457Y639221D01*
X1325021Y641657D01*
X1322039Y643379D01*
X1318712Y644270D01*
X1315268D01*
X1311941Y643379D01*
X1308959Y641657D01*
X1306523Y639221D01*
X1304997Y636578D01*
X1304593Y636465D01*
X1303987D01*
X1303583Y636578D01*
X1302057Y639221D01*
X1299621Y641657D01*
X1296639Y643379D01*
X1293312Y644270D01*
X1289868D01*
X1286541Y643379D01*
X1283559Y641657D01*
X1281123Y639221D01*
X1279597Y636578D01*
X1279193Y636465D01*
X1278587D01*
X1278183Y636578D01*
X1276657Y639221D01*
X1274221Y641657D01*
X1271239Y643379D01*
X1267912Y644270D01*
X1264468D01*
X1263368Y643975D01*
X1143027Y764317D01*
X1141568Y765436D01*
X1139868Y766140D01*
X1138045Y766380D01*
X1096773D01*
X1096287Y767554D01*
X1192150Y863417D01*
X1193420Y862890D01*
Y860608D01*
X1194311Y857281D01*
X1196033Y854299D01*
X1198469Y851863D01*
X1201451Y850141D01*
X1204778Y849250D01*
X1208222D01*
X1211549Y850141D01*
X1214531Y851863D01*
X1216967Y854299D01*
X1218689Y857281D01*
X1219580Y860608D01*
Y864052D01*
X1218689Y867379D01*
X1216967Y870361D01*
X1214531Y872797D01*
X1211888Y874323D01*
X1211775Y874727D01*
Y875333D01*
X1211888Y875737D01*
X1214531Y877263D01*
X1216967Y879699D01*
X1218689Y882681D01*
X1219580Y886008D01*
Y889452D01*
X1218689Y892779D01*
X1216967Y895761D01*
X1214531Y898197D01*
X1211888Y899723D01*
X1211775Y900127D01*
Y900733D01*
X1211888Y901137D01*
X1214531Y902663D01*
X1216967Y905099D01*
X1218689Y908081D01*
X1219580Y911408D01*
Y914852D01*
X1218689Y918179D01*
X1216967Y921161D01*
X1214531Y923597D01*
X1211888Y925123D01*
X1211775Y925527D01*
Y926133D01*
X1211888Y926537D01*
X1214531Y928063D01*
X1216967Y930499D01*
X1218689Y933481D01*
X1219580Y936808D01*
Y940252D01*
X1218689Y943579D01*
X1216967Y946561D01*
X1214531Y948997D01*
X1211888Y950523D01*
X1211775Y950927D01*
Y951533D01*
X1211888Y951937D01*
X1214531Y953463D01*
X1216967Y955899D01*
X1218689Y958881D01*
X1219580Y962208D01*
Y965652D01*
X1218689Y968979D01*
X1216967Y971961D01*
X1214531Y974397D01*
X1211888Y975923D01*
X1211775Y976327D01*
Y976933D01*
X1211888Y977337D01*
X1214531Y978863D01*
X1216967Y981299D01*
X1218689Y984281D01*
X1219580Y987608D01*
Y991052D01*
X1218689Y994379D01*
X1216967Y997361D01*
X1214531Y999797D01*
X1211888Y1001323D01*
X1211775Y1001727D01*
Y1002333D01*
X1211888Y1002737D01*
X1214531Y1004263D01*
X1216967Y1006699D01*
X1218689Y1009681D01*
X1219580Y1013008D01*
Y1016452D01*
X1218689Y1019779D01*
X1216967Y1022761D01*
X1214531Y1025197D01*
X1211888Y1026723D01*
X1211775Y1027127D01*
Y1027733D01*
X1211888Y1028137D01*
X1214531Y1029663D01*
X1216967Y1032099D01*
X1218689Y1035081D01*
X1219580Y1038408D01*
Y1041852D01*
X1218689Y1045179D01*
X1216967Y1048161D01*
X1214531Y1050597D01*
X1211888Y1052123D01*
X1211775Y1052527D01*
Y1053133D01*
X1211888Y1053537D01*
X1214531Y1055063D01*
X1216967Y1057499D01*
X1218689Y1060481D01*
X1219580Y1063808D01*
Y1067252D01*
X1218689Y1070579D01*
X1216967Y1073561D01*
X1214531Y1075997D01*
X1211888Y1077523D01*
X1211775Y1077927D01*
Y1078533D01*
X1211888Y1078937D01*
X1214531Y1080463D01*
X1216967Y1082899D01*
X1218689Y1085881D01*
X1219580Y1089208D01*
Y1092652D01*
X1218689Y1095979D01*
X1216967Y1098961D01*
X1214531Y1101397D01*
X1211888Y1102923D01*
X1211775Y1103327D01*
Y1103933D01*
X1211888Y1104337D01*
X1214531Y1105863D01*
X1216967Y1108299D01*
X1218689Y1111281D01*
X1219580Y1114608D01*
Y1118052D01*
X1218689Y1121379D01*
X1216967Y1124361D01*
X1214531Y1126797D01*
X1211888Y1128323D01*
X1211775Y1128727D01*
Y1129333D01*
X1211888Y1129737D01*
X1214531Y1131263D01*
X1216967Y1133699D01*
X1218689Y1136681D01*
X1219580Y1140008D01*
Y1143452D01*
X1218689Y1146779D01*
X1216967Y1149761D01*
X1214531Y1152197D01*
X1211888Y1153723D01*
X1211775Y1154127D01*
Y1154733D01*
X1211888Y1155137D01*
X1214531Y1156663D01*
X1216967Y1159099D01*
X1218689Y1162081D01*
X1219580Y1165408D01*
Y1168852D01*
X1218689Y1172179D01*
X1216967Y1175161D01*
X1214531Y1177597D01*
X1211888Y1179123D01*
X1211775Y1179527D01*
Y1180133D01*
X1211888Y1180537D01*
X1214531Y1182063D01*
X1216967Y1184499D01*
X1218689Y1187481D01*
X1219580Y1190808D01*
Y1194252D01*
X1218689Y1197579D01*
X1216967Y1200561D01*
X1214531Y1202997D01*
X1211888Y1204523D01*
X1211775Y1204927D01*
Y1205533D01*
X1211888Y1205937D01*
X1214531Y1207463D01*
X1216967Y1209899D01*
X1218689Y1212881D01*
X1219580Y1216208D01*
Y1219652D01*
X1218689Y1222979D01*
X1217654Y1224770D01*
X1218289Y1225870D01*
X1417197D01*
X1422315Y1220752D01*
X1422020Y1219652D01*
Y1216208D01*
X1422911Y1212881D01*
X1424633Y1209899D01*
X1427069Y1207463D01*
X1430051Y1205741D01*
X1433378Y1204850D01*
X1436822D01*
X1440149Y1205741D01*
X1443131Y1207463D01*
X1445567Y1209899D01*
X1447289Y1212881D01*
X1448180Y1216208D01*
Y1219652D01*
X1447289Y1222979D01*
X1445567Y1225961D01*
X1443131Y1228397D01*
X1440149Y1230119D01*
X1436822Y1231010D01*
X1433378D01*
X1432278Y1230715D01*
X1425773Y1237220D01*
X1426300Y1238490D01*
X1428188D01*
X1432067Y1239262D01*
X1435721Y1240775D01*
X1439010Y1242973D01*
X1441807Y1245770D01*
X1444005Y1249059D01*
X1445518Y1252713D01*
X1446290Y1256592D01*
Y1260548D01*
X1445518Y1264427D01*
X1444005Y1268081D01*
X1441807Y1271370D01*
X1439010Y1274167D01*
X1435721Y1276365D01*
X1432067Y1277878D01*
X1428188Y1278650D01*
X1424232D01*
X1420353Y1277878D01*
X1416699Y1276365D01*
X1413410Y1274167D01*
X1410613Y1271370D01*
X1408415Y1268081D01*
X1406902Y1264427D01*
X1406130Y1260548D01*
Y1256592D01*
X1406902Y1252713D01*
X1408415Y1249059D01*
X1410613Y1245770D01*
X1413410Y1242973D01*
X1416018Y1241230D01*
X1415632Y1239960D01*
X1227238D01*
X1226852Y1241230D01*
X1229460Y1242973D01*
X1232257Y1245770D01*
X1234455Y1249059D01*
X1235968Y1252713D01*
X1236740Y1256592D01*
Y1260548D01*
X1235968Y1264427D01*
X1234455Y1268081D01*
X1232257Y1271370D01*
X1229460Y1274167D01*
X1226171Y1276365D01*
X1222517Y1277878D01*
X1218638Y1278650D01*
X1214682D01*
X1210803Y1277878D01*
X1207149Y1276365D01*
X1203860Y1274167D01*
X1201063Y1271370D01*
X1198865Y1268081D01*
X1197352Y1264427D01*
X1196580Y1260548D01*
Y1256592D01*
X1197352Y1252713D01*
X1198865Y1249059D01*
X1201063Y1245770D01*
X1203860Y1242973D01*
X1206468Y1241230D01*
X1206082Y1239960D01*
X1200293D01*
X1198470Y1239720D01*
X1196770Y1239016D01*
X1195311Y1237897D01*
X1134176Y1176761D01*
X1133056Y1175302D01*
X1132353Y1173603D01*
X1132113Y1171780D01*
Y866486D01*
X1090040Y824414D01*
X1088770Y824940D01*
Y827222D01*
X1087879Y830549D01*
X1086157Y833531D01*
X1083721Y835967D01*
X1081078Y837493D01*
X1080965Y837897D01*
Y838503D01*
X1081078Y838907D01*
X1083721Y840433D01*
X1086157Y842869D01*
X1087879Y845851D01*
X1088770Y849178D01*
Y852622D01*
X1087879Y855949D01*
X1086157Y858931D01*
X1083721Y861367D01*
X1081078Y862893D01*
X1080965Y863297D01*
Y863903D01*
X1081078Y864307D01*
X1083721Y865833D01*
X1086157Y868269D01*
X1087879Y871251D01*
X1088770Y874578D01*
Y878022D01*
X1087879Y881349D01*
X1086157Y884331D01*
X1083721Y886767D01*
X1081078Y888293D01*
X1080965Y888697D01*
Y889303D01*
X1081078Y889707D01*
X1083721Y891233D01*
X1086157Y893669D01*
X1087879Y896651D01*
X1088770Y899978D01*
Y903422D01*
X1087879Y906749D01*
X1086157Y909731D01*
X1083721Y912167D01*
X1081078Y913693D01*
X1080965Y914097D01*
Y914703D01*
X1081078Y915107D01*
X1083721Y916633D01*
X1086157Y919069D01*
X1087879Y922051D01*
X1088770Y925378D01*
Y928822D01*
X1087879Y932149D01*
X1086157Y935131D01*
X1083721Y937567D01*
X1081078Y939093D01*
X1080965Y939497D01*
Y940103D01*
X1081078Y940507D01*
X1083721Y942033D01*
X1086157Y944469D01*
X1087879Y947451D01*
X1088770Y950778D01*
Y954222D01*
X1087879Y957549D01*
X1086157Y960531D01*
X1083721Y962967D01*
X1081078Y964493D01*
X1080965Y964897D01*
Y965503D01*
X1081078Y965907D01*
X1083721Y967433D01*
X1086157Y969869D01*
X1087879Y972851D01*
X1088770Y976178D01*
Y979622D01*
X1087879Y982949D01*
X1086157Y985931D01*
X1083721Y988367D01*
X1081078Y989893D01*
X1080965Y990297D01*
Y990903D01*
X1081078Y991307D01*
X1083721Y992833D01*
X1086157Y995269D01*
X1087879Y998251D01*
X1088770Y1001578D01*
Y1005022D01*
X1087879Y1008349D01*
X1086157Y1011331D01*
X1083721Y1013767D01*
X1081078Y1015293D01*
X1080965Y1015697D01*
Y1016303D01*
X1081078Y1016707D01*
X1083721Y1018233D01*
X1086157Y1020669D01*
X1087879Y1023651D01*
X1088770Y1026978D01*
Y1030422D01*
X1087879Y1033749D01*
X1086157Y1036731D01*
X1083721Y1039167D01*
X1081078Y1040693D01*
X1080965Y1041097D01*
Y1041703D01*
X1081078Y1042107D01*
X1083721Y1043633D01*
X1086157Y1046069D01*
X1087879Y1049051D01*
X1088770Y1052378D01*
Y1055822D01*
X1087879Y1059149D01*
X1086157Y1062131D01*
X1083721Y1064567D01*
X1081078Y1066093D01*
X1080965Y1066497D01*
Y1067103D01*
X1081078Y1067507D01*
X1083721Y1069033D01*
X1086157Y1071469D01*
X1087879Y1074451D01*
X1088770Y1077778D01*
Y1081222D01*
X1087879Y1084549D01*
X1086157Y1087531D01*
X1083721Y1089967D01*
X1081078Y1091493D01*
X1080965Y1091897D01*
Y1092503D01*
X1081078Y1092907D01*
X1083721Y1094433D01*
X1086157Y1096869D01*
X1087879Y1099851D01*
X1088770Y1103178D01*
Y1106622D01*
X1087879Y1109949D01*
X1086157Y1112931D01*
X1083721Y1115367D01*
X1081078Y1116893D01*
X1080965Y1117297D01*
Y1117903D01*
X1081078Y1118307D01*
X1083721Y1119833D01*
X1086157Y1122269D01*
X1087879Y1125251D01*
X1088770Y1128578D01*
Y1132022D01*
X1087879Y1135349D01*
X1086157Y1138331D01*
X1083721Y1140767D01*
X1081078Y1142293D01*
X1080965Y1142697D01*
Y1143303D01*
X1081078Y1143707D01*
X1083721Y1145233D01*
X1086157Y1147669D01*
X1087879Y1150651D01*
X1088770Y1153978D01*
Y1157422D01*
X1087879Y1160749D01*
X1086157Y1163731D01*
X1083721Y1166167D01*
X1081078Y1167693D01*
X1080965Y1168097D01*
Y1168703D01*
X1081078Y1169107D01*
X1083721Y1170633D01*
X1086157Y1173069D01*
X1087879Y1176051D01*
X1088770Y1179378D01*
Y1182822D01*
X1087879Y1186149D01*
X1086157Y1189131D01*
X1083721Y1191567D01*
X1081078Y1193093D01*
X1080965Y1193497D01*
Y1194103D01*
X1081078Y1194507D01*
X1083721Y1196033D01*
X1086157Y1198469D01*
X1087879Y1201451D01*
X1088770Y1204778D01*
Y1208222D01*
X1087879Y1211549D01*
X1086157Y1214531D01*
X1083721Y1216967D01*
X1080739Y1218689D01*
X1077412Y1219580D01*
X1076610D01*
X1076365Y1220121D01*
X1076399Y1220306D01*
X1077038Y1221299D01*
X1077178Y1221387D01*
X1079758Y1222078D01*
X1082162Y1223466D01*
X1084124Y1225428D01*
X1085512Y1227832D01*
X1086230Y1230512D01*
Y1230630D01*
X1075690D01*
Y1233170D01*
X1086479D01*
X1086587Y1233432D01*
X1087417Y1233766D01*
X1155980D01*
X1157962Y1234160D01*
X1159643Y1235283D01*
X1178995Y1254635D01*
X1179123Y1254733D01*
X1206122Y1281732D01*
X1206643Y1282132D01*
X1207082Y1282314D01*
X1207893Y1282421D01*
X1434977D01*
X1435788Y1282314D01*
D02*
G37*
G36*
X1603330Y1318720D02*
Y1225089D01*
X1551146Y1172905D01*
X1534040D01*
Y1177440D01*
X1508880D01*
Y1154477D01*
X1508841Y1154280D01*
Y1112413D01*
X1509235Y1110431D01*
X1510358Y1108751D01*
X1538334Y1080774D01*
X1540014Y1079652D01*
X1540630Y1079529D01*
Y1078080D01*
X1542079D01*
X1542202Y1077465D01*
X1543324Y1075784D01*
X1543324Y1075784D01*
X1546350Y1072759D01*
X1546292Y1071114D01*
X1545763Y1070707D01*
X1545356Y1070178D01*
X1543711Y1070120D01*
X1505896Y1107936D01*
X1505398Y1108585D01*
X1505216Y1109024D01*
X1505109Y1109835D01*
Y1177435D01*
X1505216Y1178246D01*
X1505398Y1178686D01*
X1505896Y1179334D01*
X1511961Y1185400D01*
X1513606Y1185342D01*
X1514013Y1184813D01*
X1515901Y1183364D01*
X1518100Y1182453D01*
X1520190Y1182178D01*
Y1191260D01*
X1521460D01*
Y1192530D01*
X1532058D01*
X1532613Y1193126D01*
X1563974D01*
X1565956Y1193520D01*
X1567636Y1194643D01*
X1579252Y1206258D01*
X1579628Y1206822D01*
X1580075Y1207331D01*
X1580184Y1207654D01*
X1580374Y1207939D01*
X1580506Y1208603D01*
X1580724Y1209245D01*
X1580702Y1209586D01*
X1580768Y1209921D01*
X1580636Y1210585D01*
X1580623Y1210789D01*
X1583273Y1211499D01*
X1586027Y1213090D01*
X1588276Y1215339D01*
X1589867Y1218093D01*
X1590690Y1221166D01*
Y1224346D01*
X1590579Y1224761D01*
X1597577Y1231759D01*
X1598696Y1233218D01*
X1599400Y1234918D01*
X1599640Y1236741D01*
Y1314274D01*
X1599400Y1316097D01*
X1598696Y1317796D01*
X1597577Y1319256D01*
X1589384Y1327448D01*
X1587925Y1328567D01*
X1586226Y1329271D01*
X1584403Y1329511D01*
X1082950D01*
X1081127Y1329271D01*
X1079428Y1328567D01*
X1078461Y1327825D01*
X1076918Y1327905D01*
X1076834Y1327973D01*
X1075154Y1329096D01*
X1073172Y1329490D01*
X593864D01*
X591882Y1329096D01*
X590202Y1327973D01*
X562941Y1300712D01*
X562941Y1300712D01*
X561818Y1299032D01*
X561424Y1297050D01*
X561818Y1295068D01*
X561211Y1294063D01*
X559659Y1293167D01*
X557223Y1290731D01*
X555501Y1287749D01*
X554610Y1284422D01*
Y1280978D01*
X554905Y1279878D01*
X553342Y1278315D01*
X552203Y1278973D01*
X552830Y1281312D01*
Y1281430D01*
X542290D01*
X531750D01*
Y1281312D01*
X532468Y1278632D01*
X533856Y1276228D01*
X534151Y1275934D01*
X533665Y1274760D01*
X528680D01*
X528045Y1275860D01*
X529079Y1277651D01*
X529970Y1280978D01*
Y1284422D01*
X529079Y1287749D01*
X527357Y1290731D01*
X524921Y1293167D01*
X521939Y1294889D01*
X518612Y1295780D01*
X515168D01*
X511841Y1294889D01*
X508859Y1293167D01*
X506423Y1290731D01*
X504897Y1288088D01*
X504493Y1287975D01*
X503887D01*
X503483Y1288088D01*
X501957Y1290731D01*
X499521Y1293167D01*
X496539Y1294889D01*
X493212Y1295780D01*
X489768D01*
X486441Y1294889D01*
X483459Y1293167D01*
X481023Y1290731D01*
X479497Y1288088D01*
X479093Y1287975D01*
X478487D01*
X478083Y1288088D01*
X476557Y1290731D01*
X474121Y1293167D01*
X471139Y1294889D01*
X467812Y1295780D01*
X464368D01*
X461041Y1294889D01*
X458059Y1293167D01*
X455623Y1290731D01*
X454097Y1288088D01*
X453693Y1287975D01*
X453087D01*
X452683Y1288088D01*
X451157Y1290731D01*
X448721Y1293167D01*
X445739Y1294889D01*
X442412Y1295780D01*
X438968D01*
X435641Y1294889D01*
X432659Y1293167D01*
X430223Y1290731D01*
X428697Y1288088D01*
X428293Y1287975D01*
X427687D01*
X427283Y1288088D01*
X425757Y1290731D01*
X423321Y1293167D01*
X420339Y1294889D01*
X417012Y1295780D01*
X413568D01*
X410241Y1294889D01*
X407259Y1293167D01*
X404823Y1290731D01*
X403297Y1288088D01*
X402893Y1287975D01*
X402287D01*
X401883Y1288088D01*
X400357Y1290731D01*
X397921Y1293167D01*
X394939Y1294889D01*
X391612Y1295780D01*
X388168D01*
X384841Y1294889D01*
X381859Y1293167D01*
X379423Y1290731D01*
X377701Y1287749D01*
X376810Y1284422D01*
Y1280978D01*
X377701Y1277651D01*
X378736Y1275860D01*
X378101Y1274760D01*
X359533D01*
X347784Y1286510D01*
X394474Y1333201D01*
X1588849D01*
X1603330Y1318720D01*
D02*
G37*
G36*
X1630680Y1240790D02*
X1631913D01*
X1632809Y1239520D01*
X1632557Y1238250D01*
Y1182313D01*
X1632546Y1182274D01*
X1632557Y1182193D01*
Y1182100D01*
X1632593Y1181918D01*
X1632656Y1181437D01*
X1632711Y1180594D01*
X1632787Y1180440D01*
X1632810Y1180270D01*
X1633070Y1179819D01*
Y1158360D01*
X1634519D01*
X1634642Y1157745D01*
X1635764Y1156064D01*
X1644176Y1147653D01*
X1645856Y1146530D01*
X1647838Y1146136D01*
X1702773D01*
X1703603Y1145802D01*
X1703711Y1145540D01*
X1714500D01*
Y1143000D01*
X1703960D01*
Y1142882D01*
X1704678Y1140202D01*
X1706066Y1137798D01*
X1708028Y1135836D01*
X1710432Y1134448D01*
X1713012Y1133757D01*
X1713152Y1133669D01*
X1713791Y1132676D01*
X1713825Y1132491D01*
X1713580Y1131950D01*
X1712778D01*
X1709451Y1131059D01*
X1706469Y1129337D01*
X1704033Y1126901D01*
X1703464Y1125915D01*
X1572368D01*
X1540642Y1157641D01*
X1541128Y1158815D01*
X1554064D01*
X1555888Y1159055D01*
X1557587Y1159759D01*
X1559046Y1160878D01*
X1615357Y1217189D01*
X1616476Y1218648D01*
X1617180Y1220347D01*
X1617420Y1222171D01*
Y1239752D01*
X1617980Y1240790D01*
X1628140D01*
Y1252220D01*
X1630680D01*
Y1240790D01*
D02*
G37*
%LPC*%
G36*
X1522095Y1294858D02*
X1518920D01*
Y1285240D01*
X1532816D01*
X1532612Y1286788D01*
X1531524Y1289414D01*
X1529794Y1291669D01*
X1527539Y1293399D01*
X1524913Y1294487D01*
X1522095Y1294858D01*
D02*
G37*
G36*
X1051678Y1242440D02*
X1051560D01*
Y1233170D01*
X1060830D01*
Y1233288D01*
X1060112Y1235968D01*
X1058724Y1238372D01*
X1056762Y1240334D01*
X1054358Y1241722D01*
X1051678Y1242440D01*
D02*
G37*
G36*
X1060830Y1230630D02*
X1051560D01*
Y1221360D01*
X1051678D01*
X1054358Y1222078D01*
X1056762Y1223466D01*
X1058724Y1225428D01*
X1060112Y1227832D01*
X1060830Y1230512D01*
Y1230630D01*
D02*
G37*
G36*
X1433830Y1203070D02*
X1433712D01*
X1431032Y1202352D01*
X1428628Y1200964D01*
X1426666Y1199002D01*
X1425278Y1196598D01*
X1424560Y1193918D01*
Y1193800D01*
X1433830D01*
Y1203070D01*
D02*
G37*
G36*
X1218638Y841770D02*
X1214682D01*
X1210803Y840998D01*
X1207149Y839485D01*
X1203860Y837287D01*
X1201063Y834490D01*
X1198865Y831201D01*
X1197352Y827547D01*
X1196580Y823668D01*
Y819712D01*
X1197352Y815833D01*
X1198865Y812179D01*
X1201063Y808890D01*
X1203860Y806093D01*
X1207149Y803895D01*
X1210803Y802382D01*
X1214682Y801610D01*
X1218638D01*
X1222517Y802382D01*
X1226171Y803895D01*
X1229460Y806093D01*
X1232257Y808890D01*
X1234455Y812179D01*
X1235968Y815833D01*
X1236740Y819712D01*
Y823668D01*
X1235968Y827547D01*
X1234455Y831201D01*
X1232257Y834490D01*
X1229460Y837287D01*
X1226171Y839485D01*
X1222517Y840998D01*
X1218638Y841770D01*
D02*
G37*
G36*
X786248Y617600D02*
X786130D01*
Y608330D01*
X795400D01*
Y608448D01*
X794682Y611128D01*
X793294Y613532D01*
X791332Y615494D01*
X788928Y616882D01*
X786248Y617600D01*
D02*
G37*
G36*
X783590D02*
X783472D01*
X780792Y616882D01*
X778388Y615494D01*
X776426Y613532D01*
X775038Y611128D01*
X774320Y608448D01*
Y608330D01*
X783590D01*
Y617600D01*
D02*
G37*
G36*
X1315720Y616330D02*
X1315602D01*
X1312922Y615612D01*
X1310518Y614224D01*
X1308556Y612262D01*
X1307168Y609858D01*
X1306450Y607178D01*
Y607060D01*
X1315720D01*
Y616330D01*
D02*
G37*
G36*
X236338Y611250D02*
X236220D01*
Y601980D01*
X245490D01*
Y602098D01*
X244772Y604778D01*
X243384Y607182D01*
X241422Y609144D01*
X239018Y610532D01*
X236338Y611250D01*
D02*
G37*
G36*
X543678Y1293240D02*
X543560D01*
Y1283970D01*
X552830D01*
Y1284088D01*
X552112Y1286768D01*
X550724Y1289172D01*
X548762Y1291134D01*
X546358Y1292522D01*
X543678Y1293240D01*
D02*
G37*
G36*
X541020D02*
X540902D01*
X538222Y1292522D01*
X535818Y1291134D01*
X533856Y1289172D01*
X532468Y1286768D01*
X531750Y1284088D01*
Y1283970D01*
X541020D01*
Y1293240D01*
D02*
G37*
G36*
X1531411Y1189990D02*
X1522730D01*
Y1182178D01*
X1524820Y1182453D01*
X1527019Y1183364D01*
X1528907Y1184813D01*
X1530356Y1186701D01*
X1531267Y1188900D01*
X1531411Y1189990D01*
D02*
G37*
G36*
X1620520Y1180891D02*
Y1172210D01*
X1628333D01*
X1628057Y1174300D01*
X1627146Y1176499D01*
X1625697Y1178387D01*
X1623809Y1179836D01*
X1621610Y1180747D01*
X1620520Y1180891D01*
D02*
G37*
G36*
X1617980D02*
X1616890Y1180747D01*
X1614691Y1179836D01*
X1612803Y1178387D01*
X1611354Y1176499D01*
X1610443Y1174300D01*
X1610168Y1172210D01*
X1617980D01*
Y1180891D01*
D02*
G37*
G36*
X1628333Y1169670D02*
X1620520D01*
Y1160989D01*
X1621610Y1161133D01*
X1623809Y1162044D01*
X1625697Y1163493D01*
X1627146Y1165381D01*
X1628057Y1167580D01*
X1628333Y1169670D01*
D02*
G37*
G36*
X1617980D02*
X1610168D01*
X1610443Y1167580D01*
X1611354Y1165381D01*
X1612803Y1163493D01*
X1614691Y1162044D01*
X1616890Y1161133D01*
X1617980Y1160989D01*
Y1169670D01*
D02*
G37*
%LPD*%
G36*
X1512570Y826141D02*
X1512832Y826033D01*
X1513166Y825203D01*
Y199730D01*
X1513059Y198919D01*
X1512877Y198479D01*
X1512379Y197831D01*
X1397408Y82860D01*
X1396285Y81179D01*
X1396167Y80583D01*
X1395088Y79913D01*
X1393308Y80390D01*
X1391458D01*
X1390931Y81660D01*
X1507917Y198646D01*
X1509040Y200326D01*
X1509434Y202308D01*
Y825203D01*
X1509768Y826033D01*
X1510030Y826141D01*
Y836930D01*
X1512570D01*
Y826141D01*
D02*
G37*
G36*
X845276Y87864D02*
X845715Y87682D01*
X846364Y87184D01*
X852817Y80731D01*
X853167Y79909D01*
X852811Y79046D01*
X851864Y78099D01*
X851640Y78007D01*
X850370Y78011D01*
X850179Y78093D01*
X845549Y82722D01*
X843869Y83845D01*
X841887Y84239D01*
X821425D01*
X819443Y83845D01*
X818273Y83063D01*
X817849Y83309D01*
X814522Y84200D01*
X811078D01*
X807751Y83309D01*
X807327Y83063D01*
X806157Y83845D01*
X804175Y84239D01*
X334133D01*
X332151Y83845D01*
X330471Y82722D01*
X319491Y71743D01*
X318669Y71393D01*
X317806Y71750D01*
X316859Y72696D01*
X316767Y72920D01*
X316771Y74190D01*
X316853Y74381D01*
X329656Y87184D01*
X330304Y87682D01*
X330744Y87864D01*
X331555Y87971D01*
X844465D01*
X845276Y87864D01*
D02*
G37*
G36*
X295366Y81514D02*
X295805Y81332D01*
X296454Y80834D01*
X302907Y74381D01*
X302989Y74190D01*
X302993Y72920D01*
X302901Y72696D01*
X301954Y71750D01*
X301730Y71657D01*
X300460Y71661D01*
X300269Y71743D01*
X295639Y76372D01*
X293959Y77495D01*
X291977Y77889D01*
X271515D01*
X269533Y77495D01*
X268363Y76713D01*
X267939Y76959D01*
X264612Y77850D01*
X261168D01*
X257841Y76959D01*
X254859Y75237D01*
X252423Y72801D01*
X250701Y69819D01*
X249810Y66492D01*
Y63048D01*
X250701Y59721D01*
X252423Y56739D01*
X254859Y54303D01*
X257841Y52581D01*
X258315Y52454D01*
X258590Y51075D01*
X259712Y49394D01*
X266099Y43008D01*
X267779Y41885D01*
X269761Y41491D01*
X278309D01*
X278510Y41464D01*
X411897D01*
X412099Y41491D01*
X1358777D01*
X1358777Y41491D01*
X1360759Y41885D01*
X1362439Y43008D01*
X1382309Y62877D01*
X1383131Y63227D01*
X1383994Y62870D01*
X1384940Y61924D01*
X1385297Y61061D01*
X1384947Y60239D01*
X1363254Y38546D01*
X1362605Y38048D01*
X1362166Y37866D01*
X1361355Y37759D01*
X267183D01*
X266372Y37866D01*
X265933Y38048D01*
X265284Y38546D01*
X246826Y57004D01*
X246328Y57653D01*
X246146Y58092D01*
X246039Y58903D01*
Y70637D01*
X246146Y71448D01*
X246328Y71887D01*
X246826Y72536D01*
X255124Y80834D01*
X255772Y81332D01*
X256212Y81514D01*
X257023Y81621D01*
X294555D01*
X295366Y81514D01*
D02*
G37*
D25*
X262890Y64770D02*
X278510Y49150D01*
X411897D01*
X412532Y49785D01*
X545920D01*
X812800Y71120D02*
X814070Y69850D01*
Y55500D02*
Y69850D01*
Y55500D02*
X819150Y50420D01*
X946468D01*
X952182Y56135D01*
X1079500D01*
X1568180Y1075690D02*
X1584960Y1058910D01*
X1554210Y1089660D02*
X1568180Y1075690D01*
X1511300Y1007110D02*
Y1027430D01*
X1525270Y1041400D01*
X1584960Y1044376D02*
Y1058910D01*
X1581984Y1041400D02*
X1584960Y1044376D01*
X1525270Y1041400D02*
X1581984D01*
X1553210Y1089660D02*
X1554210D01*
X1770380Y1078666D02*
Y1136650D01*
X1568180Y1075690D02*
X1767404D01*
X1770380Y1078666D01*
X1737360Y1169670D02*
X1770380Y1136650D01*
X1714500Y1169670D02*
X1737360D01*
X567255Y71120D02*
X812800D01*
X545920Y49785D02*
X567255Y71120D01*
X1344930Y69850D02*
Y603250D01*
X1475740Y734060D02*
Y883920D01*
X1344930Y603250D02*
X1475740Y734060D01*
X1511300Y919480D02*
Y1007110D01*
X1475740Y883920D02*
X1511300Y919480D01*
X1644650Y1170940D02*
X1645920Y1169670D01*
X1714500D01*
X1644650Y1170940D02*
Y1171940D01*
X1654810Y1182100D02*
Y1252220D01*
X1644650Y1171940D02*
X1654810Y1182100D01*
X1093215Y69850D02*
X1344930D01*
X1079500Y56135D02*
X1093215Y69850D01*
D26*
X247905Y58563D02*
X266843Y39625D01*
X1361695D02*
X1391920Y69850D01*
X266843Y39625D02*
X1361695D01*
X294895Y79755D02*
X309880Y64770D01*
X256683Y79755D02*
X294895D01*
X247905Y58563D02*
Y70977D01*
X256683Y79755D01*
X309880Y64770D02*
X331215Y86105D01*
X844805D01*
X859790Y71120D01*
X1391920Y69850D02*
Y70466D01*
X1387148Y75238D02*
X1391920Y70466D01*
X1387148Y75238D02*
X1511300Y199390D01*
Y836930D01*
X1552210Y1064260D02*
X1553210D01*
X1506975Y1109495D02*
X1552210Y1064260D01*
X1506975Y1109495D02*
Y1177775D01*
X1520460Y1191260D01*
X1521460D01*
X1522460Y1165860D02*
X1554064D01*
X1569450Y1118870D02*
X1714500D01*
X1522460Y1165860D02*
X1569450Y1118870D01*
X1521460Y1165860D02*
X1522460D01*
X1619250Y1169940D02*
X1644920Y1144270D01*
X1619250Y1169940D02*
Y1170940D01*
X1644920Y1144270D02*
X1714500D01*
X339398Y1284932D02*
Y1288088D01*
X391556Y1340246D01*
X1591767D01*
X1610375Y1321638D01*
Y1222171D02*
Y1321638D01*
X1554064Y1165860D02*
X1610375Y1222171D01*
X339398Y1284932D02*
X356615Y1267715D01*
X1601485Y1225853D02*
Y1317956D01*
X1521460Y1191260D02*
X1566892D01*
X1601485Y1225853D01*
X542290Y1282700D02*
X590946Y1331356D01*
X1588085D01*
X1601485Y1317956D01*
X356615Y1267715D02*
X552705D01*
X567690Y1282700D01*
X1578610Y1222756D02*
X1592595Y1236741D01*
Y1314274D01*
X1082950Y1322466D02*
X1584403D01*
X1050737Y1290253D02*
X1082950Y1322466D01*
X1584403D02*
X1592595Y1314274D01*
X1619250Y1170940D02*
Y1171940D01*
X1075690Y1231900D02*
X1158898D01*
X1207553Y1280555D01*
X1435316D01*
X1450085Y1265786D01*
Y1207515D02*
Y1265786D01*
X1435100Y1192530D02*
X1450085Y1207515D01*
X1200293Y1232915D02*
X1420115D01*
X1435100Y1217930D01*
X1139158Y1171780D02*
X1200293Y1232915D01*
X1078105Y1259715D02*
X1174141D01*
X1206016Y1291590D01*
X1376045Y1133475D02*
X1435100Y1192530D01*
X1376045Y664845D02*
Y1133475D01*
X1316990Y605790D02*
X1376045Y664845D01*
X1302005Y590805D02*
X1316990Y605790D01*
X867283Y590805D02*
X1302005D01*
X851028Y607060D02*
X867283Y590805D01*
X784860Y607060D02*
X851028D01*
X864870Y605790D02*
X1240790D01*
X670560Y800100D02*
X864870Y605790D01*
X234950Y600710D02*
X497640D01*
X769875Y592075D02*
X784860Y607060D01*
X506275Y592075D02*
X769875D01*
X497640Y600710D02*
X506275Y592075D01*
X1050737Y1287355D02*
Y1290253D01*
X1035305Y1271923D02*
X1050737Y1287355D01*
X1035305Y1069085D02*
X1050290Y1054100D01*
X1035305Y1069085D02*
Y1271923D01*
X1548561Y1285036D02*
X1555165D01*
X1578610Y1308481D01*
X1517650Y1258570D02*
X1522095D01*
X1548561Y1285036D01*
X1508760Y1291590D02*
X1516380Y1283970D01*
X1517650D01*
X1206016Y1291590D02*
X1508760D01*
X1050290Y1231900D02*
X1078105Y1259715D01*
X1139158Y863568D02*
Y1171780D01*
X1075690Y800100D02*
X1139158Y863568D01*
X948690Y800100D02*
X980565Y768225D01*
X1086995D02*
X1206500Y887730D01*
X772160Y775970D02*
X788795Y759335D01*
X1073897Y777115D02*
X1204167Y907386D01*
X997075Y777115D02*
X1073897D01*
X974090Y800100D02*
X997075Y777115D01*
X1204167Y910798D02*
X1206500Y913130D01*
X788795Y759335D02*
X1138045D01*
X1204167Y907386D02*
Y910798D01*
X1138045Y759335D02*
X1266190Y631190D01*
X980565Y768225D02*
X1086995D01*
X734060Y607060D02*
Y632460D01*
X772160Y775970D02*
Y812800D01*
X787400Y828040D01*
X864870Y631190D02*
X1240790D01*
X695960Y800100D02*
X864870Y631190D01*
X1266190Y605790D02*
Y631190D01*
X787400Y828040D02*
X970280D01*
X985520Y843280D01*
X991870D02*
X1050290Y901700D01*
X985520Y843280D02*
X991870D01*
X907962Y905294D02*
X1005968Y1003300D01*
X134875Y704591D02*
X335578Y905294D01*
X907962D01*
X1005968Y1003300D02*
X1050290D01*
X694945Y634745D02*
X706375D01*
X673100Y656590D02*
X694945Y634745D01*
X706375D02*
X708660Y632460D01*
X673100Y656590D02*
Y759332D01*
X645160Y800100D02*
X646047Y799213D01*
Y786385D02*
Y799213D01*
Y786385D02*
X673100Y759332D01*
X664210Y651510D02*
Y755650D01*
X619760Y800100D02*
X664210Y755650D01*
Y651510D02*
X708660Y607060D01*
X184150Y600710D02*
Y626110D01*
X152543Y585725D02*
X169165D01*
X184150Y600710D01*
X134875Y603393D02*
X152543Y585725D01*
X134875Y603393D02*
Y704591D01*
X233443Y721995D02*
X490855D01*
X143765Y615695D02*
X158750Y600710D01*
X143765Y615695D02*
Y632317D01*
X233443Y721995D01*
X158750Y626110D02*
X245745Y713105D01*
X507365D02*
X594360Y800100D01*
X245745Y713105D02*
X507365D01*
X490855Y721995D02*
X568960Y800100D01*
D27*
X1629410Y1252220D02*
D03*
D28*
X1654810D02*
D03*
D29*
X1644650Y1170940D02*
D03*
D30*
X1619250D02*
D03*
D31*
X1553210Y1089660D02*
D03*
X1521460Y1165860D02*
D03*
D32*
X1553210Y1064260D02*
D03*
X1521460Y1191260D02*
D03*
D33*
X1714500Y1169670D02*
D03*
Y1118870D02*
D03*
Y1144270D02*
D03*
X1906270Y836930D02*
D03*
Y1007110D02*
D03*
X1511300Y836930D02*
D03*
Y1007110D02*
D03*
X262890Y64770D02*
D03*
X158750Y626110D02*
D03*
Y600710D02*
D03*
X234950D02*
D03*
X209550D02*
D03*
X184150D02*
D03*
X234950Y626110D02*
D03*
X209550D02*
D03*
X184150D02*
D03*
X309880Y64770D02*
D03*
X812800Y71120D02*
D03*
X708660Y632460D02*
D03*
Y607060D02*
D03*
X784860D02*
D03*
X759460D02*
D03*
X734060D02*
D03*
X784860Y632460D02*
D03*
X759460D02*
D03*
X734060D02*
D03*
X859790Y71120D02*
D03*
X323850Y800100D02*
D03*
X349250D02*
D03*
X374650D02*
D03*
X400050D02*
D03*
X425450D02*
D03*
X450850D02*
D03*
X476250D02*
D03*
X501650D02*
D03*
X527050D02*
D03*
X389890Y1282700D02*
D03*
X847090D02*
D03*
X1050290Y800100D02*
D03*
X796290D02*
D03*
X568960D02*
D03*
X298450D02*
D03*
X415290Y1282700D02*
D03*
X440690D02*
D03*
X466090D02*
D03*
X491490D02*
D03*
X516890D02*
D03*
X542290D02*
D03*
X567690D02*
D03*
X643890D02*
D03*
X669290D02*
D03*
X694690D02*
D03*
X720090D02*
D03*
X745490D02*
D03*
X770890D02*
D03*
X796290D02*
D03*
X872490D02*
D03*
X897890D02*
D03*
X923290D02*
D03*
X948690D02*
D03*
X974090D02*
D03*
X999490D02*
D03*
X1024890D02*
D03*
X618490D02*
D03*
X1050290Y1231900D02*
D03*
X1075690D02*
D03*
X974090Y800100D02*
D03*
X948690D02*
D03*
X923290D02*
D03*
X897890D02*
D03*
X872490D02*
D03*
X847090D02*
D03*
X821690D02*
D03*
X746760D02*
D03*
X721360D02*
D03*
X695960D02*
D03*
X670560D02*
D03*
X645160D02*
D03*
X619760D02*
D03*
X594360D02*
D03*
X1075690Y1206500D02*
D03*
Y1181100D02*
D03*
Y1155700D02*
D03*
Y1130300D02*
D03*
Y1104900D02*
D03*
Y1079500D02*
D03*
Y1054100D02*
D03*
Y1028700D02*
D03*
Y1003300D02*
D03*
Y977900D02*
D03*
Y952500D02*
D03*
Y927100D02*
D03*
Y901700D02*
D03*
Y876300D02*
D03*
Y850900D02*
D03*
Y825500D02*
D03*
Y800100D02*
D03*
X1050290Y1206500D02*
D03*
Y1181100D02*
D03*
Y1155700D02*
D03*
Y1130300D02*
D03*
Y1104900D02*
D03*
Y1079500D02*
D03*
Y1054100D02*
D03*
Y1028700D02*
D03*
Y1003300D02*
D03*
Y977900D02*
D03*
Y952500D02*
D03*
Y927100D02*
D03*
Y901700D02*
D03*
Y876300D02*
D03*
Y850900D02*
D03*
Y825500D02*
D03*
X1344930Y69850D02*
D03*
X1240790Y631190D02*
D03*
Y605790D02*
D03*
X1316990D02*
D03*
X1291590D02*
D03*
X1266190D02*
D03*
X1316990Y631190D02*
D03*
X1291590D02*
D03*
X1266190D02*
D03*
X1391920Y69850D02*
D03*
X1206500Y1217930D02*
D03*
Y1192530D02*
D03*
Y1167130D02*
D03*
Y1141730D02*
D03*
Y1116330D02*
D03*
Y1090930D02*
D03*
Y1065530D02*
D03*
Y1040130D02*
D03*
Y1014730D02*
D03*
Y989330D02*
D03*
Y963930D02*
D03*
Y938530D02*
D03*
Y913130D02*
D03*
Y887730D02*
D03*
Y862330D02*
D03*
X1435100D02*
D03*
Y887730D02*
D03*
Y913130D02*
D03*
Y938530D02*
D03*
Y963930D02*
D03*
Y989330D02*
D03*
Y1014730D02*
D03*
Y1040130D02*
D03*
Y1065530D02*
D03*
Y1090930D02*
D03*
Y1116330D02*
D03*
Y1141730D02*
D03*
Y1167130D02*
D03*
Y1192530D02*
D03*
Y1217930D02*
D03*
D34*
X1559560Y1002030D02*
D03*
X1859280Y842010D02*
D03*
X491490Y543560D02*
D03*
X92710Y144780D02*
D03*
X91440Y543560D02*
D03*
X491490Y143510D02*
D03*
X1041400Y549910D02*
D03*
X642620Y151130D02*
D03*
X641350Y549910D02*
D03*
X1041400Y149860D02*
D03*
X262890Y800100D02*
D03*
X1013460D02*
D03*
X770890Y1231900D02*
D03*
X1075690Y1282700D02*
D03*
X250190D02*
D03*
X1573530Y548640D02*
D03*
X1174750Y149860D02*
D03*
X1173480Y548640D02*
D03*
X1573530Y148590D02*
D03*
X1424940Y821690D02*
D03*
X1426210Y1258570D02*
D03*
X1216660Y821690D02*
D03*
Y1258570D02*
D03*
D35*
X1578610Y1308481D02*
D03*
Y1222756D02*
D03*
D36*
X1517650Y1258570D02*
D03*
D37*
Y1283970D02*
D03*
D38*
X1619250Y1171940D02*
X1629410Y1182100D01*
Y1252220D01*
M02*
