G04*
G04 #@! TF.GenerationSoftware,Altium Limited,Altium Designer,21.8.1 (53)*
G04*
G04 Layer_Color=8388736*
%FSLAX44Y44*%
%MOMM*%
G71*
G04*
G04 #@! TF.SameCoordinates,8ADACE41-6A2D-41FB-BF43-4A9E8EE8C82B*
G04*
G04*
G04 #@! TF.FilePolarity,Negative*
G04*
G01*
G75*
%ADD14R,1.9812X1.9812*%
%ADD15O,1.9812X2.1082*%
%ADD16R,1.5032X1.7032*%
%ADD17O,1.5032X1.7032*%
%ADD18R,1.7032X1.5032*%
%ADD19O,1.7032X1.5032*%
%ADD20C,1.8032*%
%ADD21C,1.7272*%
%ADD22C,1.6032*%
%ADD23R,2.7432X1.8542*%
%ADD24O,2.7432X1.8542*%
D14*
X1629410Y1252220D02*
D03*
D15*
X1654810D02*
D03*
D16*
X1644650Y1170940D02*
D03*
D17*
X1619250D02*
D03*
D18*
X1553210Y1089660D02*
D03*
X1521460Y1165860D02*
D03*
D19*
X1553210Y1064260D02*
D03*
X1521460Y1191260D02*
D03*
D20*
X1714500Y1169670D02*
D03*
Y1118870D02*
D03*
Y1144270D02*
D03*
X1906270Y836930D02*
D03*
Y1007110D02*
D03*
X1511300Y836930D02*
D03*
Y1007110D02*
D03*
X262890Y64770D02*
D03*
X158750Y626110D02*
D03*
Y600710D02*
D03*
X234950D02*
D03*
X209550D02*
D03*
X184150D02*
D03*
X234950Y626110D02*
D03*
X209550D02*
D03*
X184150D02*
D03*
X309880Y64770D02*
D03*
X812800Y71120D02*
D03*
X708660Y632460D02*
D03*
Y607060D02*
D03*
X784860D02*
D03*
X759460D02*
D03*
X734060D02*
D03*
X784860Y632460D02*
D03*
X759460D02*
D03*
X734060D02*
D03*
X859790Y71120D02*
D03*
X323850Y800100D02*
D03*
X349250D02*
D03*
X374650D02*
D03*
X400050D02*
D03*
X425450D02*
D03*
X450850D02*
D03*
X476250D02*
D03*
X501650D02*
D03*
X527050D02*
D03*
X389890Y1282700D02*
D03*
X847090D02*
D03*
X1050290Y800100D02*
D03*
X796290D02*
D03*
X568960D02*
D03*
X298450D02*
D03*
X415290Y1282700D02*
D03*
X440690D02*
D03*
X466090D02*
D03*
X491490D02*
D03*
X516890D02*
D03*
X542290D02*
D03*
X567690D02*
D03*
X643890D02*
D03*
X669290D02*
D03*
X694690D02*
D03*
X720090D02*
D03*
X745490D02*
D03*
X770890D02*
D03*
X796290D02*
D03*
X872490D02*
D03*
X897890D02*
D03*
X923290D02*
D03*
X948690D02*
D03*
X974090D02*
D03*
X999490D02*
D03*
X1024890D02*
D03*
X618490D02*
D03*
X1050290Y1231900D02*
D03*
X1075690D02*
D03*
X974090Y800100D02*
D03*
X948690D02*
D03*
X923290D02*
D03*
X897890D02*
D03*
X872490D02*
D03*
X847090D02*
D03*
X821690D02*
D03*
X746760D02*
D03*
X721360D02*
D03*
X695960D02*
D03*
X670560D02*
D03*
X645160D02*
D03*
X619760D02*
D03*
X594360D02*
D03*
X1075690Y1206500D02*
D03*
Y1181100D02*
D03*
Y1155700D02*
D03*
Y1130300D02*
D03*
Y1104900D02*
D03*
Y1079500D02*
D03*
Y1054100D02*
D03*
Y1028700D02*
D03*
Y1003300D02*
D03*
Y977900D02*
D03*
Y952500D02*
D03*
Y927100D02*
D03*
Y901700D02*
D03*
Y876300D02*
D03*
Y850900D02*
D03*
Y825500D02*
D03*
Y800100D02*
D03*
X1050290Y1206500D02*
D03*
Y1181100D02*
D03*
Y1155700D02*
D03*
Y1130300D02*
D03*
Y1104900D02*
D03*
Y1079500D02*
D03*
Y1054100D02*
D03*
Y1028700D02*
D03*
Y1003300D02*
D03*
Y977900D02*
D03*
Y952500D02*
D03*
Y927100D02*
D03*
Y901700D02*
D03*
Y876300D02*
D03*
Y850900D02*
D03*
Y825500D02*
D03*
X1344930Y69850D02*
D03*
X1240790Y631190D02*
D03*
Y605790D02*
D03*
X1316990D02*
D03*
X1291590D02*
D03*
X1266190D02*
D03*
X1316990Y631190D02*
D03*
X1291590D02*
D03*
X1266190D02*
D03*
X1391920Y69850D02*
D03*
X1206500Y1217930D02*
D03*
Y1192530D02*
D03*
Y1167130D02*
D03*
Y1141730D02*
D03*
Y1116330D02*
D03*
Y1090930D02*
D03*
Y1065530D02*
D03*
Y1040130D02*
D03*
Y1014730D02*
D03*
Y989330D02*
D03*
Y963930D02*
D03*
Y938530D02*
D03*
Y913130D02*
D03*
Y887730D02*
D03*
Y862330D02*
D03*
X1435100D02*
D03*
Y887730D02*
D03*
Y913130D02*
D03*
Y938530D02*
D03*
Y963930D02*
D03*
Y989330D02*
D03*
Y1014730D02*
D03*
Y1040130D02*
D03*
Y1065530D02*
D03*
Y1090930D02*
D03*
Y1116330D02*
D03*
Y1141730D02*
D03*
Y1167130D02*
D03*
Y1192530D02*
D03*
Y1217930D02*
D03*
D21*
X1559560Y1002030D02*
D03*
X1859280Y842010D02*
D03*
X491490Y543560D02*
D03*
X92710Y144780D02*
D03*
X91440Y543560D02*
D03*
X491490Y143510D02*
D03*
X1041400Y549910D02*
D03*
X642620Y151130D02*
D03*
X641350Y549910D02*
D03*
X1041400Y149860D02*
D03*
X262890Y800100D02*
D03*
X1013460D02*
D03*
X770890Y1231900D02*
D03*
X1075690Y1282700D02*
D03*
X250190D02*
D03*
X1573530Y548640D02*
D03*
X1174750Y149860D02*
D03*
X1173480Y548640D02*
D03*
X1573530Y148590D02*
D03*
X1424940Y821690D02*
D03*
X1426210Y1258570D02*
D03*
X1216660Y821690D02*
D03*
Y1258570D02*
D03*
D22*
X1578610Y1308481D02*
D03*
Y1222756D02*
D03*
D23*
X1517650Y1258570D02*
D03*
D24*
Y1283970D02*
D03*
M02*
